<?xml version="1.0" standalone="no"?>
<!DOCTYPE svg PUBLIC "-//W3C//DTD SVG 20010904//EN"
 "http://www.w3.org/TR/2001/REC-SVG-20010904/DTD/svg10.dtd">
<svg version="1.0" xmlns="http://www.w3.org/2000/svg"
 width="639.000000pt" height="1344.000000pt" viewBox="0 0 639.000000 1344.000000"
 preserveAspectRatio="xMidYMid meet">
<metadata>
Created by potrace 1.14, written by Peter Selinger 2001-2017
</metadata>
<g transform="translate(0.000000,1344.000000) scale(0.100000,-0.100000)"
fill="#000000" stroke="none">
<path d="M3323 13425 c-95 -17 -162 -39 -257 -86 -137 -68 -250 -168 -299
-265 -54 -107 -132 -381 -136 -476 -1 -15 -6 -14 -37 7 -135 92 -189 -150 -89
-397 51 -126 120 -182 193 -156 20 7 25 2 49 -50 75 -161 206 -345 317 -449
78 -73 253 -179 353 -215 116 -40 180 -18 423 149 244 168 370 314 429 496 23
72 29 82 48 79 42 -6 69 25 102 116 101 283 105 487 9 513 -14 3 -41 1 -61 -6
-35 -12 -37 -11 -38 9 -3 93 -40 241 -80 325 -132 274 -574 467 -926 406z
m309 -45 c218 -50 419 -158 511 -273 51 -64 73 -105 100 -187 39 -116 48 -207
48 -450 -1 -380 -70 -594 -248 -767 -72 -70 -210 -175 -328 -250 -196 -124
-215 -124 -440 1 -187 104 -350 287 -475 536 -98 195 -132 327 -131 505 1 214
98 541 190 642 115 124 318 228 491 250 25 3 46 7 48 8 8 7 188 -4 234 -15z
m818 -763 c8 -22 6 -162 -3 -202 -34 -143 -83 -284 -105 -302 -25 -20 -34 -4
-28 51 9 74 17 235 19 355 l2 104 34 18 c39 21 66 12 81 -24z m-1871 -53 c17
-14 34 -23 38 -21 5 3 9 -36 10 -86 2 -99 20 -196 52 -291 22 -63 17 -88 -19
-81 -40 8 -63 34 -101 111 -66 136 -84 286 -44 364 19 37 25 37 64 4z"/>
<path d="M3800 12749 c-84 -13 -156 -53 -141 -78 8 -12 19 -10 69 12 93 42
221 34 324 -19 25 -13 28 -12 37 5 9 16 4 21 -37 39 -87 38 -178 53 -252 41z"/>
<path d="M3070 12744 c-78 -15 -190 -52 -190 -63 1 -28 19 -29 95 -4 66 22 99
27 190 27 101 1 115 -1 161 -25 48 -25 51 -25 62 -8 10 16 5 21 -45 46 -49 23
-71 28 -153 29 -52 1 -106 0 -120 -2z"/>
<path d="M3100 12584 c-83 -28 -102 -38 -115 -65 -29 -56 6 -108 89 -130 81
-23 168 -4 222 46 39 37 42 62 13 98 -28 36 -158 68 -209 51z"/>
<path d="M3815 12580 c-131 -30 -158 -123 -50 -175 71 -35 135 -35 207 -1 101
48 108 123 16 161 -47 19 -127 26 -173 15z"/>
<path d="M3289 12093 c-11 -13 -9 -19 16 -39 17 -14 54 -36 84 -50 44 -21 65
-25 110 -22 55 4 139 38 191 78 20 15 22 20 11 34 -12 14 -16 14 -41 -4 -47
-34 -133 -70 -166 -70 -45 0 -92 18 -146 56 -41 29 -48 31 -59 17z"/>
<path d="M3415 11859 c-142 -9 -215 -25 -215 -49 0 -10 9 -21 19 -25 12 -4 17
-12 14 -24 -10 -40 128 -93 241 -94 123 0 259 42 276 87 5 14 19 26 32 28 15
2 24 11 26 24 3 19 -4 24 -47 34 -73 17 -231 26 -346 19z"/>
<path d="M2955 11532 c-1 -150 -21 -255 -66 -349 -32 -67 -57 -89 -143 -129
-57 -26 -63 -26 -256 -25 -63 1 -124 -1 -135 -3 -12 -2 -52 -7 -90 -11 -38 -3
-72 -8 -75 -10 -3 -1 -26 -6 -52 -9 -123 -17 -285 -69 -418 -134 -166 -82
-354 -332 -560 -742 -214 -427 -312 -782 -434 -1570 -3 -19 -8 -46 -10 -60 -2
-14 -13 -72 -23 -130 -14 -86 -18 -159 -18 -400 0 -162 5 -367 10 -455 10
-182 11 -462 2 -610 -14 -210 -28 -242 -166 -375 -152 -146 -269 -241 -369
-299 -131 -76 -169 -123 -130 -158 16 -14 34 -18 87 -16 189 6 374 2 380 -10
3 -7 -2 -57 -13 -127 -2 -14 -7 -46 -10 -71 -4 -25 -9 -59 -11 -75 -12 -76
-15 -93 -22 -154 -4 -36 -8 -109 -8 -162 0 -84 3 -100 20 -118 31 -30 81 -32
114 -4 29 24 61 113 61 169 0 60 9 16 15 -75 4 -52 8 -104 10 -115 1 -11 3
-27 4 -36 2 -27 25 -49 65 -63 57 -20 93 -5 105 42 10 40 27 174 36 287 3 39
8 79 10 90 2 11 4 40 5 65 1 38 3 41 9 20 5 -14 11 -55 15 -90 3 -36 13 -110
21 -164 8 -55 15 -102 15 -106 0 -4 12 -19 26 -34 33 -32 76 -34 104 -4 30 32
33 55 34 224 0 84 4 150 8 148 5 -3 8 -13 8 -23 0 -28 49 -163 66 -182 29 -32
55 -30 92 7 35 35 35 35 29 107 -4 61 -39 215 -52 237 -25 41 -25 728 0 803 2
7 6 28 9 47 3 19 28 132 56 250 145 611 160 694 185 1030 3 36 7 91 10 123 3
31 7 83 10 115 3 31 10 107 15 167 6 61 13 133 15 160 24 245 95 478 222 715
63 119 221 320 251 320 5 0 25 -26 43 -57 l32 -58 0 -555 c0 -305 -4 -584 -8
-620 -3 -36 -7 -72 -7 -80 -1 -90 -59 -314 -138 -535 -171 -475 -259 -774
-294 -1005 -22 -139 -26 -212 -41 -635 -7 -207 -13 -323 -22 -440 -14 -182 -6
-737 12 -830 2 -11 7 -54 10 -95 12 -153 26 -210 72 -313 21 -45 48 -99 61
-120 23 -37 23 -42 18 -220 -14 -442 -12 -427 -66 -587 -47 -138 -72 -242 -84
-340 -3 -25 -12 -94 -19 -155 -18 -141 -18 -329 -1 -425 7 -41 41 -158 74
-260 58 -174 165 -534 175 -590 3 -14 14 -65 24 -115 16 -73 19 -119 16 -245
-3 -85 -6 -166 -9 -180 -2 -14 -7 -47 -10 -75 -7 -62 -14 -120 -26 -210 -24
-177 -32 -413 -18 -467 18 -63 117 -132 139 -97 6 10 9 8 9 -9 0 -62 56 -112
128 -114 23 -1 48 -10 65 -25 16 -12 33 -24 38 -24 5 -1 15 -2 22 -3 6 -1 29
4 49 10 37 13 38 12 53 -16 22 -42 68 -63 123 -57 73 8 111 65 112 165 0 20 5
32 14 32 20 0 25 20 33 118 12 155 5 259 -27 396 -19 82 -42 239 -55 376 -3
36 -10 106 -15 155 -45 427 -29 650 64 942 126 396 217 718 240 846 11 61 14
154 12 361 -1 153 2 311 6 352 4 40 28 136 53 214 53 164 72 269 80 435 3 66
8 144 10 173 3 28 7 78 10 110 18 194 41 322 80 442 13 41 49 169 80 283 30
114 71 254 89 310 36 108 144 369 146 352 1 -5 3 -17 5 -26 4 -22 16 -188 20
-294 15 -328 17 -375 31 -600 10 -174 20 -310 29 -395 3 -25 7 -67 10 -95 8
-75 24 -175 51 -325 13 -74 26 -148 29 -165 3 -16 8 -52 11 -80 3 -27 7 -56
10 -64 3 -8 4 -150 3 -315 -1 -166 -2 -366 -2 -446 -1 -130 8 -313 18 -395 2
-16 6 -61 10 -100 9 -105 15 -152 31 -240 21 -124 24 -135 49 -222 63 -220
128 -609 128 -768 0 -120 -34 -285 -138 -665 -51 -186 -83 -260 -217 -500 -79
-141 -95 -208 -64 -267 43 -84 195 -117 260 -56 l26 24 34 -35 c24 -26 42 -36
63 -36 30 0 123 54 123 71 0 6 17 -4 38 -20 80 -64 110 -59 159 28 l27 49 44
-34 c25 -19 48 -34 52 -34 5 0 16 22 26 50 17 48 20 50 55 50 47 0 93 37 110
87 11 34 8 171 -6 248 -9 50 -13 122 -19 300 -6 175 -14 307 -22 360 -7 54 -7
179 1 225 4 25 29 90 55 145 192 404 185 387 233 515 45 117 72 220 87 325 6
44 13 91 16 105 17 103 21 512 9 820 -11 261 -11 451 -2 589 5 63 10 117 11
120 2 3 7 33 10 66 4 33 11 94 16 135 5 41 12 98 15 125 15 123 33 218 61 325
14 52 27 111 30 130 3 19 7 46 10 60 6 34 34 225 40 275 2 22 7 54 9 70 3 17
7 55 10 85 3 30 8 71 10 91 25 220 25 791 1 1064 -2 22 -7 81 -11 130 -3 50
-8 101 -10 115 -2 14 -6 52 -10 85 -10 105 -16 148 -31 245 -19 123 -23 150
-29 180 -3 14 -7 41 -10 60 -6 40 -16 96 -21 125 -55 288 -80 441 -89 550 -3
33 -7 78 -10 100 -19 171 -28 630 -13 746 4 30 26 134 48 230 36 155 47 225
52 337 1 17 4 32 7 32 3 0 24 -53 45 -117 75 -224 128 -359 195 -503 75 -159
104 -236 119 -320 6 -33 10 -268 10 -590 0 -476 3 -599 17 -690 69 -435 75
-494 75 -753 0 -111 -2 -215 -5 -232 -3 -16 -30 -104 -59 -195 -30 -91 -64
-212 -75 -270 -30 -150 -40 -190 -56 -225 -26 -55 -45 -117 -45 -147 0 -42 48
-88 92 -88 44 0 68 25 110 118 l33 72 -1 -125 c-1 -172 21 -228 86 -228 38 0
75 33 94 87 9 25 15 33 16 21 5 -94 12 -144 21 -167 36 -87 183 -77 211 14
l11 38 31 -19 c64 -39 117 -28 140 28 42 106 57 280 42 486 -15 199 -18 295
-12 295 5 0 46 -25 92 -55 119 -77 163 -98 209 -97 58 0 118 23 131 51 23 45
-7 91 -115 176 -213 167 -309 255 -335 305 -8 14 -17 56 -21 94 -8 85 -8 442
0 511 11 96 29 192 50 275 8 30 16 66 18 80 3 14 10 45 17 70 19 69 16 420 -5
590 -10 77 -21 305 -30 600 -6 216 -10 289 -30 520 -5 54 -31 215 -49 306 -44
217 -273 886 -353 1032 -98 180 -330 395 -611 566 -197 121 -366 166 -645 175
-19 1 -41 15 -73 49 -68 69 -91 110 -99 172 -4 30 -9 64 -11 75 -2 11 -9 58
-15 105 -6 47 -13 92 -14 100 -2 8 -4 23 -4 33 -1 10 -9 17 -22 17 -20 0 -21
-3 -15 -52 4 -29 10 -71 12 -93 2 -22 9 -61 14 -88 5 -26 9 -51 8 -55 -3 -14
14 -97 28 -129 7 -18 34 -55 60 -83 l47 -50 -97 0 c-89 0 -96 -1 -96 -20 0
-18 7 -20 68 -20 120 0 376 -9 417 -16 196 -29 388 -120 618 -292 131 -98 302
-267 359 -357 100 -154 337 -834 393 -1122 16 -86 35 -206 40 -263 3 -36 8
-85 10 -110 6 -65 14 -229 20 -425 7 -235 24 -561 31 -597 7 -38 18 -269 18
-368 -1 -123 -3 -144 -43 -315 -52 -222 -62 -308 -62 -533 -1 -255 7 -355 31
-401 23 -45 136 -154 260 -251 121 -93 190 -160 190 -181 0 -37 -103 -54 -158
-25 -71 37 -232 147 -242 166 -6 11 -15 18 -19 15 -5 -2 -68 45 -141 106 -112
94 -134 108 -147 98 -17 -15 -1 -31 168 -169 l96 -79 7 -133 c3 -73 8 -171 11
-218 11 -194 11 -229 -6 -320 -26 -138 -35 -160 -69 -160 -15 0 -39 9 -52 20
-14 10 -28 16 -32 12 -4 -3 -4 23 0 58 10 80 10 180 1 325 -3 61 -6 134 -7
163 0 46 -2 52 -21 52 -20 0 -21 -2 -13 -167 9 -216 9 -283 0 -363 -14 -136
-33 -170 -91 -170 -46 0 -66 20 -76 76 -9 44 -5 356 6 527 4 61 3 67 -15 67
-11 0 -20 -1 -20 -2 -2 -13 -11 -91 -20 -175 -6 -57 -13 -113 -15 -125 -3 -12
-7 -40 -10 -63 -13 -89 -34 -150 -61 -173 -24 -21 -29 -22 -42 -9 -8 8 -17 32
-21 54 -7 36 -7 220 -1 363 3 92 2 99 -17 96 -12 -2 -20 -20 -29 -62 -14 -72
-79 -234 -106 -269 -23 -30 -49 -32 -71 -7 -24 26 -22 39 23 157 22 58 40 118
40 135 0 42 62 278 104 395 51 143 58 195 57 425 -1 220 -4 258 -28 420 -8 58
-17 119 -19 135 -2 17 -6 41 -9 55 -2 14 -7 48 -11 75 -3 28 -8 57 -9 66 -15
80 -20 355 -15 1004 0 110 -2 216 -5 235 -23 131 -54 220 -130 369 -47 94
-115 271 -195 509 -29 83 -57 152 -62 152 -15 0 -39 28 -29 34 8 5 80 112 154
227 33 51 34 56 17 66 -15 10 -23 2 -64 -63 -108 -170 -326 -465 -430 -583
-135 -152 -225 -244 -302 -308 -23 -18 -47 -46 -54 -62 -26 -64 -98 -63 -125
2 -8 19 -63 83 -122 143 -115 115 -189 215 -248 332 -36 73 -94 237 -97 279
-2 25 -4 25 -29 15 -15 -6 -15 -13 3 -82 57 -220 183 -428 359 -594 45 -43 91
-96 102 -117 43 -87 151 -89 191 -5 9 20 23 39 31 43 17 10 136 125 221 214
71 75 236 275 306 371 27 37 52 68 54 68 2 0 2 -19 -1 -42 -2 -24 -7 -76 -10
-116 -2 -41 -23 -150 -45 -244 -23 -94 -44 -196 -48 -227 -14 -116 -6 -639 13
-766 3 -16 7 -61 10 -100 8 -99 53 -374 90 -560 18 -88 20 -103 49 -293 31
-200 50 -360 62 -507 3 -44 7 -96 9 -115 24 -253 24 -851 1 -1045 -2 -16 -7
-61 -10 -100 -15 -158 -68 -498 -95 -605 -27 -105 -50 -232 -66 -350 -62 -473
-67 -577 -51 -1025 16 -437 9 -714 -23 -924 -32 -206 -87 -358 -262 -720 -50
-102 -97 -210 -106 -241 -15 -54 -21 -223 -8 -280 6 -30 13 -142 20 -350 6
-179 12 -250 29 -375 19 -141 -8 -215 -80 -215 -31 0 -32 1 -31 43 1 50 -11
117 -21 117 -20 -1 -34 -19 -27 -39 9 -28 9 -151 1 -179 -9 -28 -14 -28 -55 7
-33 27 -34 30 -34 104 0 54 -3 77 -13 81 -21 8 -25 -7 -25 -93 0 -67 -5 -89
-27 -133 -15 -29 -35 -54 -45 -56 -10 -2 -33 12 -55 35 l-38 38 1 112 c0 81
-4 114 -12 118 -22 8 -30 -28 -28 -125 1 -65 -3 -104 -12 -123 -15 -30 -67
-67 -95 -67 -26 0 -70 72 -68 112 1 18 2 56 1 85 -1 43 -4 51 -18 49 -15 -2
-18 -16 -21 -83 -2 -73 -6 -84 -30 -108 -35 -35 -61 -45 -103 -38 -133 21
-152 107 -59 268 76 130 166 313 190 384 35 106 128 461 156 596 33 163 34
278 5 485 -23 165 -79 439 -111 542 -10 35 -25 97 -34 138 -13 66 -17 96 -31
200 -2 14 -6 63 -10 110 -3 47 -8 92 -10 100 -12 47 -18 251 -19 700 -1 278
-5 516 -8 530 -8 31 -64 348 -73 410 -3 25 -8 56 -10 70 -2 14 -7 50 -10 80
-4 30 -8 70 -10 89 -3 19 -7 70 -10 115 -6 81 -10 148 -20 281 -3 39 -7 122
-10 185 -3 63 -8 153 -10 200 -2 47 -7 148 -10 225 -4 77 -8 156 -10 175 -2
19 -6 73 -10 120 -3 47 -8 95 -10 107 -2 12 -7 62 -10 112 -6 65 -12 91 -22
95 -8 4 -18 4 -23 1 -4 -3 -8 -60 -7 -127 l1 -123 -76 -185 c-79 -193 -99
-254 -168 -510 -23 -85 -59 -213 -80 -285 -47 -158 -70 -285 -85 -460 -3 -38
-7 -88 -10 -110 -2 -22 -7 -94 -10 -160 -10 -213 -17 -249 -85 -460 -21 -66
-42 -145 -46 -175 -4 -30 -8 -201 -9 -380 -1 -273 -4 -338 -19 -405 -24 -108
-132 -485 -200 -697 -54 -168 -80 -261 -91 -323 -2 -16 -7 -41 -10 -55 -10
-50 -19 -188 -19 -300 0 -111 11 -307 18 -319 2 -3 6 -46 10 -96 13 -179 42
-392 68 -505 23 -102 28 -142 29 -235 2 -104 -3 -175 -13 -181 -5 -3 -8 -2 -7
3 1 4 1 22 0 40 -1 25 -5 30 -19 26 -17 -4 -19 -16 -18 -135 l1 -130 -28 -24
c-54 -46 -116 -24 -141 50 -14 40 -15 144 -2 202 5 24 3 33 -9 38 -24 9 -37
-37 -39 -141 0 -50 -2 -90 -4 -88 -2 2 -15 -3 -29 -10 -32 -17 -63 -6 -81 26
-13 24 -11 176 3 225 5 15 1 23 -11 28 -9 3 -19 5 -21 3 -8 -8 -14 -54 -20
-144 l-6 -93 -34 0 c-45 0 -83 39 -84 89 -2 46 -2 33 5 133 5 71 3 87 -10 92
-8 3 -17 0 -19 -7 -8 -21 -21 -131 -19 -165 1 -31 -1 -33 -25 -27 -34 8 -67
40 -80 75 -9 27 -8 211 3 280 3 19 8 69 11 110 3 41 10 102 15 135 5 33 12 87
15 120 3 33 8 71 11 85 3 14 7 97 9 185 4 149 3 169 -25 295 -46 211 -120 467
-256 880 -27 80 -24 358 5 560 26 188 31 207 92 390 l48 145 6 175 c4 96 8
209 10 250 2 41 4 90 4 109 1 34 1 34 53 -37 48 -68 69 -84 82 -63 4 5 -27 56
-68 114 -81 116 -153 250 -184 342 -11 33 -25 112 -31 175 -7 63 -14 131 -16
150 -20 172 -27 647 -12 810 10 113 15 229 22 440 7 246 19 454 31 575 19 184
113 518 268 959 187 527 189 540 190 1346 l1 485 52 -72 c127 -177 330 -398
445 -483 26 -19 48 -43 48 -52 0 -10 13 -32 28 -49 22 -25 36 -31 69 -32 41
-1 83 22 83 45 0 5 58 67 128 136 135 133 206 229 281 377 74 148 115 251 105
266 -14 23 -33 3 -59 -63 -97 -253 -240 -461 -422 -616 -34 -28 -65 -61 -68
-72 -4 -11 -16 -25 -27 -31 -27 -14 -69 15 -80 57 -5 17 -23 39 -45 54 -56 37
-289 273 -362 367 -169 217 -292 433 -376 659 -32 86 -40 101 -56 97 -11 -3
-19 -6 -19 -7 0 -13 58 -164 94 -245 l46 -104 -61 -62 c-99 -102 -164 -196
-237 -348 -95 -194 -160 -378 -176 -497 -11 -83 -35 -304 -41 -380 -3 -41 -8
-93 -10 -115 -2 -22 -6 -76 -10 -120 -3 -44 -8 -96 -10 -115 -2 -19 -7 -71
-10 -115 -16 -207 -50 -400 -120 -685 -15 -58 -29 -115 -31 -128 -3 -13 -14
-60 -25 -105 -36 -148 -69 -319 -77 -396 -9 -98 -9 -490 0 -606 4 -49 19 -130
33 -180 14 -49 28 -119 31 -155 6 -58 4 -67 -15 -84 -19 -17 -23 -18 -35 -5
-24 25 -100 300 -113 410 -4 36 -9 46 -22 44 -14 -2 -16 -33 -17 -294 -1 -312
-6 -345 -48 -339 -33 5 -41 37 -71 288 -9 69 -18 145 -21 170 -3 25 -9 72 -14
105 -4 33 -6 63 -3 68 5 9 -18 9 -33 -1 -11 -7 -17 -49 -29 -212 -4 -41 -8
-91 -10 -110 -2 -19 -7 -66 -10 -105 -24 -269 -30 -295 -66 -295 -70 0 -76 40
-78 463 -1 215 -3 247 -16 247 -9 0 -18 -6 -20 -12 -4 -14 -33 -254 -41 -348
-8 -89 -33 -193 -53 -220 -20 -27 -48 -28 -68 -2 -15 19 -16 109 -4 202 5 36
12 88 16 115 3 28 8 64 11 80 2 17 13 88 23 158 11 71 21 130 23 131 2 2 30
16 63 31 79 38 217 175 263 263 18 34 30 67 27 72 -10 17 -33 11 -40 -9 -25
-80 -162 -231 -254 -280 -71 -37 -113 -46 -211 -41 -104 5 -174 4 -250 -3 -80
-8 -99 1 -68 30 26 24 133 93 144 93 9 0 110 78 163 125 174 154 265 246 296
300 29 50 43 117 51 242 10 139 9 461 -2 658 -16 306 -11 694 11 818 10 56 14
77 25 154 6 43 13 89 16 103 2 14 15 95 30 180 14 85 39 223 56 305 16 83 31
157 33 165 11 52 51 202 82 300 106 343 324 780 527 1053 60 82 155 175 189
186 7 2 24 12 38 22 57 40 277 112 409 134 19 3 42 8 50 10 8 2 47 7 85 11 39
3 79 8 90 10 11 3 65 4 120 3 215 -3 209 -4 288 33 40 20 86 47 100 62 43 43
86 138 102 226 13 70 17 113 20 200 4 97 3 100 -18 100 -21 0 -22 -5 -22 -78z"/>
<path d="M3175 6590 c-10 -16 45 -108 87 -146 28 -25 48 -34 76 -35 20 -1 55
-3 77 -4 63 -5 78 3 125 62 34 44 40 57 29 64 -21 13 -22 13 -62 -40 l-37 -48
-77 3 c-70 3 -79 6 -109 35 -18 17 -43 51 -56 75 -22 43 -40 54 -53 34z"/>
<path d="M4495 3887 c-106 -109 -122 -115 -267 -113 -93 1 -109 4 -168 32 -36
17 -83 46 -104 63 -35 28 -41 30 -54 17 -14 -13 -13 -17 9 -36 40 -34 131 -85
183 -103 61 -21 263 -18 311 4 37 17 227 208 219 220 -14 22 -45 2 -129 -84z"/>
<path d="M2489 3918 c-39 -54 -78 -69 -197 -74 -101 -4 -134 6 -210 63 -30 22
-36 24 -48 11 -13 -13 -11 -18 19 -41 81 -62 114 -72 227 -71 140 0 192 18
241 82 19 26 34 53 31 60 -7 23 -32 12 -63 -30z"/>
</g>
</svg>
