<?xml version="1.0" standalone="no"?>
<!DOCTYPE svg PUBLIC "-//W3C//DTD SVG 20010904//EN"
 "http://www.w3.org/TR/2001/REC-SVG-20010904/DTD/svg10.dtd">
<svg version="1.0" xmlns="http://www.w3.org/2000/svg"
 width="418.000000pt" height="459.000000pt" viewBox="0 0 418.000000 459.000000"
 preserveAspectRatio="xMidYMid meet">
<metadata>
Created by potrace 1.14, written by Peter Selinger 2001-2017
</metadata>
<g transform="translate(0.000000,459.000000) scale(0.100000,-0.100000)"
fill="#000000" stroke="none">
<path d="M1689 4576 c-131 -45 -227 -213 -231 -401 l-1 -70 -11 50 c-17 71
-63 151 -113 195 -136 120 -299 40 -319 -157 l-7 -62 -36 30 c-69 55 -167 54
-228 -3 -57 -52 -81 -169 -55 -264 16 -55 64 -124 107 -153 48 -32 129 -40
178 -16 37 17 96 93 98 127 1 10 3 23 4 28 1 6 3 15 4 21 0 6 21 -7 45 -29 54
-50 73 -60 126 -67 55 -7 118 21 154 67 14 19 35 68 45 109 18 71 19 72 26 39
27 -126 143 -239 246 -240 235 -1 387 381 258 648 -60 124 -181 185 -290 148z
m137 -45 c173 -79 214 -419 72 -606 -162 -213 -400 -71 -399 240 1 130 41 236
119 314 69 69 135 85 208 52z m-559 -185 c77 -39 142 -159 148 -273 10 -182
-115 -286 -235 -195 -47 36 -56 47 -91 118 -57 118 -47 264 23 331 48 46 93
51 155 19z m-340 -205 c65 -34 120 -152 111 -235 -12 -102 -68 -160 -149 -153
-155 13 -233 266 -116 375 43 40 96 45 154 13z"/>
<path d="M2368 4580 c-160 -48 -248 -271 -198 -502 25 -117 107 -234 193 -273
51 -24 51 -29 0 -39 -17 -4 -51 -25 -76 -46 -89 -79 -146 -237 -149 -415 -3
-176 1 -200 102 -590 19 -73 33 -161 38 -225 9 -142 9 -747 -1 -894 -16 -244
-37 -350 -100 -505 -28 -69 -63 -169 -78 -221 -15 -52 -28 -86 -29 -75 -1 11
-3 27 -5 35 -1 8 -8 56 -14 105 -16 121 -53 321 -101 545 -62 294 -69 333 -85
463 -14 117 -14 340 0 447 25 197 58 354 124 597 58 209 65 251 63 360 -2 154
-15 173 -202 298 -102 68 -195 115 -275 139 -146 44 -463 -24 -819 -177 l-123
-53 29 41 c134 192 -67 492 -256 381 -172 -101 -80 -445 120 -450 24 0 44 -1
44 -2 0 0 -38 -24 -84 -52 -46 -28 -104 -67 -130 -87 l-47 -35 20 39 c55 107
12 281 -87 345 -67 45 -132 40 -183 -13 -109 -116 -42 -370 109 -410 38 -11
71 -9 95 5 6 4 -9 -15 -34 -42 -97 -105 -139 -204 -144 -336 -6 -174 46 -325
308 -893 177 -383 170 -368 230 -521 71 -178 94 -272 102 -409 15 -277 25
-364 55 -512 39 -187 104 -306 209 -384 91 -67 250 -145 346 -170 235 -60 505
12 631 168 45 55 88 152 94 213 1 8 10 -9 20 -38 57 -160 181 -286 340 -347
176 -66 387 -53 575 36 128 61 179 113 249 257 44 88 89 231 111 347 19 107
36 206 41 245 36 312 77 438 297 915 147 320 186 416 271 668 87 262 109 370
103 507 -5 114 -21 171 -66 230 -38 49 -47 65 -32 55 20 -12 94 22 130 59 75
77 99 221 53 317 -27 55 -69 82 -129 81 -111 -3 -196 -122 -195 -273 0 -31 5
-67 12 -79 11 -20 8 -19 -32 8 -24 17 -70 46 -103 65 l-58 36 29 7 c51 12 102
43 128 76 87 116 79 302 -17 370 -25 18 -46 23 -97 23 -57 0 -70 -4 -104 -30
-110 -84 -146 -276 -68 -367 21 -24 16 -23 -79 21 -195 89 -423 166 -514 171
-21 2 -24 4 -10 7 54 12 104 38 141 74 l41 40 12 -46 c41 -162 203 -208 315
-89 146 155 84 424 -98 426 -43 1 -96 -21 -133 -55 l-23 -20 0 39 c0 106 -65
214 -141 234 -99 27 -207 -40 -265 -164 -13 -28 -24 -59 -24 -68 0 -10 -4 -18
-9 -18 -4 0 -8 10 -7 23 1 12 -4 55 -12 96 -24 132 -99 248 -188 292 -50 24
-114 32 -156 19z m141 -56 c97 -48 172 -204 173 -361 1 -114 -27 -200 -88
-272 -143 -171 -374 -9 -397 279 -17 205 104 394 240 375 23 -3 55 -13 72 -21z
m514 -163 c37 -14 75 -59 92 -110 57 -167 -59 -402 -200 -405 -164 -4 -205
292 -62 449 24 27 59 52 82 60 48 17 57 18 88 6z m375 -222 c13 -8 32 -34 44
-59 84 -171 -89 -403 -228 -308 -92 63 -95 229 -7 327 60 66 126 80 191 40z
m-671 -31 c-3 -7 -5 -2 -5 12 0 14 2 19 5 13 2 -7 2 -19 0 -25z m0 -104 c5
-50 39 -127 68 -154 13 -12 40 -28 62 -35 35 -13 25 -14 -130 -17 -158 -3
-204 2 -158 17 44 14 141 165 141 219 0 32 12 9 17 -30z m-2178 -58 c15 -8 42
-31 58 -50 105 -118 56 -329 -76 -330 -87 0 -169 100 -175 214 -4 63 32 143
72 165 35 18 86 19 121 1z m3207 -5 c102 -62 88 -266 -24 -345 -75 -53 -152
-35 -192 45 -65 126 26 319 150 319 19 0 49 -9 66 -19z m-2164 -207 c88 -32
155 -69 268 -146 116 -79 125 -88 140 -132 12 -39 16 -184 5 -244 -3 -17 -28
-113 -55 -213 -47 -171 -102 -421 -115 -519 -19 -148 -23 -211 -19 -355 3
-173 4 -186 29 -325 1 -8 6 -35 10 -60 4 -25 24 -124 45 -220 180 -823 179
-1147 -2 -1316 -88 -83 -247 -136 -398 -135 -132 0 -255 40 -403 128 -138 83
-198 156 -248 302 -25 70 -52 217 -63 336 -12 124 -16 173 -21 284 -11 200
-56 335 -265 791 -337 735 -373 832 -373 1005 0 111 18 173 74 258 93 141 318
293 607 412 180 73 403 143 518 161 21 3 41 8 43 10 2 2 37 4 77 4 53 0 92 -7
146 -26z m1409 0 c329 -87 763 -302 919 -454 74 -72 102 -141 108 -260 5 -119
-18 -236 -87 -445 -96 -290 -129 -373 -238 -608 -103 -223 -117 -255 -172
-379 -91 -211 -148 -407 -166 -573 -38 -360 -124 -650 -232 -782 -94 -116
-310 -197 -503 -188 -248 12 -445 153 -511 364 -52 169 -25 362 91 651 59 147
76 211 95 367 20 166 28 903 12 1095 -7 81 -22 147 -90 408 -73 276 -68 497
14 662 48 94 119 143 226 154 32 4 59 8 61 9 2 2 88 3 191 4 170 0 197 -2 282
-25z m-2756 -58 c108 -108 83 -325 -38 -329 -114 -3 -203 194 -142 313 41 79
110 85 180 16z m3849 17 c64 -63 51 -223 -24 -302 -30 -31 -85 -53 -114 -45
-125 31 -110 294 21 360 49 25 83 21 117 -13z"/>
<path d="M1525 2839 c-27 -6 -78 -19 -113 -30 -70 -23 -65 -14 -82 -156 -23
-200 -112 -523 -201 -730 -18 -42 -18 -43 0 -53 16 -8 22 -3 39 38 92 219 187
573 207 772 4 36 12 70 18 76 25 24 152 49 249 49 82 0 98 3 101 17 3 10 -3
18 -17 22 -31 8 -143 5 -201 -5z"/>
<path d="M1272 1152 c-32 -5 -25 -37 8 -38 162 -6 303 -40 433 -103 73 -35 79
-36 88 -19 8 15 0 22 -58 52 -134 67 -372 122 -471 108z"/>
<path d="M2382 2899 c-10 -15 -4 -22 36 -48 97 -62 260 -121 335 -121 21 0 27
-5 28 -22 17 -330 84 -615 195 -828 60 -114 69 -126 88 -111 13 11 12 17 -8
49 -123 196 -212 519 -230 836 -4 55 -8 102 -11 105 -3 3 -24 6 -47 8 -98 8
-242 61 -332 121 -40 27 -44 28 -54 11z"/>
<path d="M2531 1083 c-97 -18 -203 -66 -195 -87 8 -21 12 -20 75 8 30 13 77
29 106 35 63 15 212 18 306 7 63 -8 67 -7 67 12 0 16 -9 21 -57 27 -98 13
-224 12 -302 -2z"/>
</g>
</svg>
