<?xml version="1.0" standalone="no"?>
<!DOCTYPE svg PUBLIC "-//W3C//DTD SVG 20010904//EN"
 "http://www.w3.org/TR/2001/REC-SVG-20010904/DTD/svg10.dtd">
<svg version="1.0" xmlns="http://www.w3.org/2000/svg"
 width="860.000000pt" height="700.000000pt" viewBox="0 0 860.000000 700.000000"
 preserveAspectRatio="xMidYMid meet">
<metadata>
Created by potrace 1.14, written by Peter Selinger 2001-2017
</metadata>
<g transform="translate(0.000000,700.000000) scale(0.100000,-0.100000)"
fill="#000000" stroke="none">
<path d="M131 6976 c-8 -9 -8 -16 -2 -20 5 -4 56 -62 113 -129 56 -67 114
-135 129 -152 14 -16 84 -97 155 -180 71 -82 143 -166 160 -185 17 -19 71 -80
120 -135 128 -144 181 -201 350 -375 199 -205 277 -312 369 -506 123 -259 318
-874 415 -1305 22 -99 40 -189 40 -199 0 -34 -198 -138 -234 -124 -31 12 -53
112 -62 283 -6 108 -14 138 -36 125 -16 -10 -8 -174 18 -333 5 -32 4 -42 -4
-37 -14 9 -37 -45 -54 -124 -13 -67 -14 -68 -116 -68 -106 0 -136 18 -292 176
-148 150 -222 243 -274 342 -53 103 -59 142 -71 477 -3 83 -7 160 -9 170 -2
10 -7 41 -10 68 -18 132 -68 263 -126 328 -53 61 -180 115 -310 133 -61 9
-232 8 -313 0 -58 -7 -67 -10 -67 -28 0 -19 4 -20 83 -13 262 24 455 -12 560
-104 45 -40 92 -138 117 -244 21 -92 27 -149 35 -322 3 -66 8 -164 10 -218 6
-121 18 -173 61 -258 50 -100 144 -219 289 -365 163 -164 193 -181 321 -180
l91 1 -1 -85 c-1 -120 21 -246 85 -499 l29 -114 -30 -34 c-86 -97 -138 -306
-118 -468 15 -121 108 -260 258 -386 113 -94 187 -139 230 -139 76 0 182 99
241 225 38 80 44 118 44 260 0 156 -16 192 -110 256 -53 36 -61 45 -46 50 14
6 17 16 15 46 -1 21 -5 86 -9 145 -3 59 -8 117 -10 130 -2 13 -11 86 -20 163
-9 77 -20 165 -25 195 -6 30 -12 75 -15 100 -3 25 -8 59 -11 75 -3 17 -7 44
-10 60 -4 25 -44 247 -60 335 -93 496 -313 1210 -476 1550 -93 193 -164 287
-397 525 -123 125 -261 276 -426 464 -16 18 -34 39 -40 45 -5 6 -37 43 -70 81
-33 39 -62 72 -65 75 -3 3 -93 107 -199 233 -107 125 -197 227 -201 227 -4 0
-13 -6 -19 -14z m1888 -3381 c12 -66 23 -131 25 -145 4 -22 31 -201 41 -270 2
-14 6 -45 9 -70 13 -108 18 -147 21 -170 6 -39 25 -259 27 -320 2 -30 -2 -57
-7 -59 -29 -14 -114 165 -200 424 -53 156 -66 201 -125 414 -16 57 -31 105
-33 107 -1 2 -31 5 -66 6 -37 2 -65 8 -68 15 -5 13 26 133 37 147 5 4 11 -2
15 -14 9 -27 46 -41 87 -33 35 6 149 61 183 87 11 8 23 12 27 8 4 -4 16 -61
27 -127z m-214 -331 c34 -115 77 -257 97 -316 l36 -107 -31 -10 c-81 -26 -161
-40 -168 -29 -9 15 -75 291 -95 397 -16 89 -24 199 -17 247 4 28 6 29 61 28
l57 0 60 -210z m189 -555 c55 -129 90 -175 176 -236 101 -71 114 -97 117 -233
4 -167 -37 -281 -137 -382 -78 -77 -111 -84 -185 -34 -244 162 -376 341 -376
510 0 222 79 405 182 421 20 3 65 14 100 25 35 10 69 19 74 19 6 0 28 -40 49
-90z"/>
<path d="M8330 6863 c-281 -338 -728 -842 -903 -1018 -286 -287 -384 -454
-549 -935 -132 -385 -278 -929 -314 -1169 -3 -20 -9 -52 -14 -71 -5 -19 -11
-53 -15 -75 -3 -23 -8 -52 -10 -65 -3 -14 -8 -45 -11 -70 -3 -25 -7 -47 -9
-50 -2 -3 -6 -30 -10 -60 -3 -30 -13 -98 -20 -150 -8 -52 -17 -117 -20 -145
-3 -27 -8 -66 -10 -85 -3 -19 -7 -55 -9 -80 -3 -25 -8 -70 -11 -100 -3 -30 -8
-99 -10 -152 -5 -86 -3 -97 12 -100 13 -2 0 -16 -43 -45 -68 -47 -87 -71 -104
-133 -16 -60 -16 -213 0 -280 30 -128 124 -266 211 -311 65 -33 95 -26 194 43
179 124 300 264 345 398 19 55 21 79 17 160 -10 173 -40 270 -111 363 l-37 49
40 166 c54 228 73 342 73 442 l-1 85 97 0 c121 0 147 14 282 148 181 179 261
279 325 405 43 83 53 141 60 332 12 336 32 475 85 593 52 116 160 185 330 213
38 6 186 6 345 0 30 -1 40 3 43 16 3 13 -9 18 -65 24 -115 12 -293 7 -378 -11
-199 -41 -299 -136 -349 -332 -30 -117 -39 -200 -51 -500 -3 -73 -8 -152 -11
-175 -20 -145 -123 -298 -354 -527 -140 -139 -153 -146 -269 -147 l-96 -1 -25
96 c-21 81 -28 95 -43 93 -14 -2 -17 1 -13 15 15 49 27 148 30 242 4 101 0
120 -23 114 -14 -3 -17 -15 -16 -57 3 -132 -27 -315 -55 -341 -15 -14 -22 -14
-59 -2 -22 8 -74 34 -116 57 -61 36 -74 47 -70 64 119 579 317 1217 476 1539
91 182 165 280 379 498 141 143 146 149 324 349 71 80 143 161 160 180 30 33
301 350 449 524 37 44 66 85 64 90 -10 30 -41 4 -137 -111z m-1585 -3212 c22
-10 57 -21 78 -25 33 -6 41 -3 67 22 l29 30 15 -52 c8 -28 16 -64 18 -81 l3
-30 -64 -1 c-45 0 -67 -5 -72 -15 -5 -8 -27 -81 -50 -164 -102 -369 -227 -699
-292 -769 l-27 -29 5 94 c5 92 12 179 20 249 3 19 7 58 10 85 19 178 63 474
101 678 l17 87 51 -30 c28 -17 69 -39 91 -49z m225 -231 c3 -30 1 -86 -3 -125
-8 -70 -65 -339 -95 -448 -15 -57 -16 -58 -46 -52 -88 18 -167 47 -163 59 16
40 112 349 142 456 49 175 43 165 106 165 l54 0 5 -55z m-209 -649 c99 -26
118 -34 141 -62 66 -79 101 -200 102 -354 1 -109 0 -112 -38 -190 -31 -65 -57
-98 -135 -175 -105 -104 -236 -200 -273 -200 -44 0 -127 67 -171 137 -60 97
-80 177 -78 307 2 129 26 187 92 221 46 24 113 86 141 130 14 23 43 81 64 129
20 47 38 86 39 86 1 0 53 -13 116 -29z"/>
<path d="M20 6465 c-12 -15 3 -33 141 -165 139 -135 167 -157 294 -231 324
-188 596 -387 675 -492 216 -285 208 -265 225 -567 4 -58 8 -121 10 -140 10
-78 16 -126 20 -145 3 -11 7 -37 10 -57 8 -60 42 -208 66 -283 45 -146 90
-209 199 -278 61 -38 229 -108 242 -101 4 3 8 13 8 22 0 12 -18 23 -58 36
-145 47 -264 131 -306 215 -51 100 -110 338 -132 536 -2 22 -6 54 -9 70 -2 17
-6 77 -10 135 -14 279 -19 293 -159 483 -160 217 -310 337 -738 588 -152 89
-183 114 -389 316 -68 67 -77 72 -89 58z"/>
<path d="M8410 6333 c-119 -116 -170 -159 -238 -198 -335 -192 -595 -374 -702
-492 -58 -64 -191 -246 -218 -299 -26 -52 -40 -132 -47 -269 -15 -320 -78
-642 -155 -795 -44 -87 -136 -154 -282 -208 -41 -15 -76 -30 -76 -34 -8 -37
-2 -38 79 -8 155 56 259 128 304 207 46 83 104 279 129 438 23 149 31 222 41
395 12 212 18 232 132 388 97 132 158 198 251 273 97 79 322 227 506 334 82
47 154 92 161 98 7 7 76 74 154 151 113 110 139 141 130 152 -6 8 -13 14 -15
14 -1 0 -71 -66 -154 -147z"/>
<path d="M4048 5965 c-2 -2 -41 -5 -88 -9 -199 -13 -291 -40 -525 -155 -278
-137 -501 -221 -586 -221 -22 0 -29 -5 -29 -20 0 -27 32 -26 148 5 135 36 276
94 464 189 264 135 403 169 658 165 133 -2 228 -2 430 0 69 1 134 0 145 -2 11
-3 47 -8 80 -12 112 -13 229 -56 440 -160 218 -107 326 -151 459 -185 99 -25
139 -26 134 -3 -2 11 -22 20 -68 29 -143 30 -336 104 -527 205 -73 38 -156 78
-183 89 -63 25 -189 58 -249 66 -25 3 -59 8 -76 11 -16 2 -93 4 -170 2 -169
-3 -334 -1 -403 5 -28 2 -52 3 -54 1z"/>
<path d="M3163 5491 c-1 -15 11 -22 60 -36 182 -51 295 -202 322 -427 3 -29 8
-69 10 -88 3 -19 18 -143 35 -275 38 -303 38 -299 71 -495 17 -99 57 -268 70
-292 10 -18 9 -20 -5 -15 -31 12 -138 -216 -171 -367 -14 -64 -17 -105 -12
-200 4 -67 9 -132 11 -146 4 -23 10 -66 22 -160 6 -46 50 -339 69 -455 8 -49
17 -112 20 -140 4 -27 8 -57 10 -65 11 -42 35 -267 35 -326 0 -38 0 -100 -1
-139 0 -71 5 -138 21 -255 5 -36 12 -87 15 -115 4 -27 12 -90 20 -140 8 -49
16 -110 20 -135 3 -25 10 -70 15 -100 5 -30 12 -77 15 -105 4 -27 8 -57 10
-65 3 -8 7 -40 11 -70 4 -30 8 -62 9 -70 5 -35 18 -157 20 -180 1 -19 -11 -34
-49 -64 -93 -73 -340 -283 -406 -345 -125 -118 -238 -170 -380 -177 -107 -4
-129 2 -319 87 -118 54 -156 67 -162 57 -5 -7 -8 -16 -6 -21 3 -12 286 -136
347 -152 112 -31 271 -8 389 56 32 17 121 86 197 154 77 68 204 177 284 243
l145 119 -3 59 c-3 65 -29 272 -67 519 -8 50 -16 106 -19 125 -33 232 -46 325
-51 375 -4 33 -9 68 -11 77 -3 9 -4 61 -4 115 3 219 -2 271 -55 618 -8 50 -17
110 -20 135 -3 25 -8 52 -10 60 -2 8 -7 35 -10 60 -3 25 -8 56 -10 70 -5 31
-12 80 -20 145 -4 28 -8 57 -10 65 -2 8 -6 38 -10 65 -3 28 -8 66 -11 85 -3
19 -7 89 -9 155 -4 94 -1 135 14 190 23 90 79 226 118 288 l30 48 47 -128 c54
-150 97 -229 132 -245 20 -10 50 -7 147 10 136 25 189 52 212 105 l13 32 10
-25 c23 -60 76 -87 222 -115 100 -20 125 -18 158 10 36 30 57 71 113 222 56
152 49 150 107 32 102 -208 126 -346 97 -549 -2 -14 -7 -50 -10 -80 -4 -30
-20 -144 -36 -253 -30 -204 -32 -220 -45 -297 -4 -25 -8 -54 -10 -65 -1 -11
-14 -103 -29 -205 -21 -141 -28 -231 -30 -380 -2 -107 -5 -206 -8 -220 -3 -14
-8 -51 -12 -84 -4 -32 -8 -68 -10 -80 -2 -11 -9 -57 -15 -101 -6 -44 -12 -91
-15 -105 -4 -27 -5 -35 -30 -205 -9 -60 -18 -121 -20 -135 -15 -96 -37 -266
-41 -325 -6 -69 -6 -70 24 -92 56 -41 326 -267 377 -314 118 -111 171 -152
240 -187 118 -58 264 -76 375 -47 25 7 113 43 196 80 126 57 150 71 146 87 -2
10 -6 18 -8 18 -4 0 -148 -63 -244 -107 -93 -43 -160 -57 -245 -50 -120 10
-240 61 -325 138 -25 23 -65 60 -90 83 -25 23 -103 91 -175 150 -71 60 -142
119 -156 131 -15 13 -39 31 -54 41 -35 23 -42 -47 75 764 16 113 32 227 36
255 3 27 8 61 11 75 2 14 5 118 7 231 2 113 6 214 9 225 3 10 9 44 12 74 3 30
8 66 10 80 2 14 14 88 25 165 12 77 23 151 25 165 14 90 47 311 51 340 2 19 6
49 9 65 3 17 7 55 11 85 3 30 9 82 13 114 12 86 5 232 -12 296 -41 149 -139
353 -165 342 -9 -3 -13 -1 -9 5 20 32 89 369 111 543 2 19 9 76 16 125 6 50
13 101 15 115 2 14 6 50 10 80 4 30 8 66 10 80 4 25 10 82 21 168 3 26 10 74
15 107 32 185 141 318 301 366 72 22 81 28 69 47 -5 9 -21 8 -66 -3 -119 -31
-215 -105 -279 -215 -43 -74 -64 -150 -81 -300 -3 -30 -8 -66 -10 -80 -2 -14
-6 -50 -10 -80 -5 -51 -11 -98 -20 -160 -2 -14 -7 -52 -10 -85 -4 -33 -8 -67
-10 -75 -2 -8 -7 -40 -10 -70 -20 -179 -91 -525 -114 -555 -4 -5 -32 -77 -62
-158 -31 -87 -65 -162 -82 -183 -28 -33 -31 -34 -80 -29 -80 9 -197 41 -219
62 -46 42 -52 68 -56 274 l-4 196 41 54 c64 84 85 147 85 259 0 106 -13 165
-45 198 -33 36 -40 77 -40 234 0 214 9 237 118 299 175 99 259 191 271 296 l5
43 -69 2 c-145 3 -692 3 -761 0 l-73 -4 0 -41 c0 -54 44 -132 102 -182 24 -20
86 -63 139 -96 53 -32 103 -67 112 -77 26 -28 35 -99 33 -266 -1 -151 -1 -153
-30 -195 -72 -104 -75 -288 -7 -413 14 -25 38 -60 53 -77 l27 -30 -3 -188 c-4
-213 -13 -255 -65 -290 -30 -20 -120 -45 -214 -58 -69 -9 -87 13 -152 192 -20
54 -47 123 -60 153 -37 87 -90 321 -110 488 -3 26 -8 58 -10 72 -3 14 -16 115
-30 225 -14 110 -27 214 -29 230 -3 17 -8 57 -12 90 -3 33 -8 69 -10 80 -2 10
-6 37 -9 60 -29 208 -181 373 -375 409 -30 5 -36 3 -37 -13z m1543 -113 c4 -4
-5 -32 -20 -62 -30 -60 -100 -122 -216 -191 -99 -58 -127 -89 -141 -153 -12
-59 -15 -312 -4 -365 4 -18 18 -49 33 -70 74 -110 62 -304 -28 -417 l-31 -40
-23 28 c-66 82 -90 157 -84 266 5 81 17 118 61 186 20 33 22 47 23 205 1 179
-9 249 -42 286 -10 11 -55 43 -101 70 -150 91 -221 159 -238 231 -6 25 -5 27
32 30 76 6 772 3 779 -4z"/>
</g>
</svg>
