<?xml version="1.0" standalone="no"?>
<!DOCTYPE svg PUBLIC "-//W3C//DTD SVG 20010904//EN"
 "http://www.w3.org/TR/2001/REC-SVG-20010904/DTD/svg10.dtd">
<svg version="1.0" xmlns="http://www.w3.org/2000/svg"
 width="604.000000pt" height="715.000000pt" viewBox="0 0 604.000000 715.000000"
 preserveAspectRatio="xMidYMid meet">
<metadata>
Created by potrace 1.14, written by Peter Selinger 2001-2017
</metadata>
<g transform="translate(0.000000,715.000000) scale(0.100000,-0.100000)"
fill="#000000" stroke="none">
<path d="M5965 7115 c-36 -30 -981 -774 -1082 -851 -41 -32 -46 -33 -115 -28
-108 7 -219 26 -476 80 -92 19 -176 36 -187 38 -11 3 -92 21 -180 40 -261 58
-707 155 -745 161 -19 3 -57 10 -85 15 -93 17 -130 21 -215 21 -216 0 -473
-57 -1000 -221 -417 -129 -440 -134 -533 -118 -189 34 -713 236 -1048 404 -65
32 -89 40 -98 31 -6 -6 -11 -14 -11 -19 0 -9 113 -63 355 -170 99 -43 189 -83
200 -88 11 -5 74 -31 140 -56 263 -102 471 -157 556 -149 49 5 195 45 364 99
669 214 974 273 1220 237 110 -16 413 -79 711 -146 87 -20 170 -39 184 -41 14
-3 86 -19 160 -35 168 -38 424 -89 470 -95 19 -2 60 -9 90 -15 30 -6 93 -12
140 -13 l85 -1 225 178 c124 98 239 189 255 202 17 12 109 85 205 160 96 76
233 183 304 239 182 142 180 140 173 159 -9 23 -16 21 -62 -18z"/>
<path d="M4602 5828 c-190 -531 -261 -895 -216 -1115 36 -177 140 -496 214
-658 160 -348 285 -558 419 -698 42 -44 47 -46 57 -29 10 16 5 26 -35 68 -168
178 -350 514 -489 899 -109 300 -141 441 -136 590 1 61 5 121 8 135 3 14 10
57 16 95 24 153 141 552 229 780 36 92 38 105 13 105 -14 0 -31 -36 -80 -172z"/>
<path d="M2640 5752 c-383 -324 -698 -649 -774 -801 -63 -125 -80 -455 -36
-701 5 -30 11 -67 14 -81 24 -144 101 -354 167 -455 82 -125 304 -370 455
-501 12 -10 54 -48 95 -84 116 -104 279 -239 289 -239 5 0 17 11 28 25 17 22
140 161 168 189 46 49 313 390 363 466 79 120 174 313 200 409 29 104 42 383
28 567 -21 254 -98 456 -231 601 -131 146 -458 447 -666 615 l-45 36 -55 -46z
m184 -114 c241 -204 518 -469 596 -573 118 -154 183 -393 182 -660 -2 -334
-18 -419 -113 -612 -47 -96 -209 -349 -238 -373 -4 -3 -31 -36 -61 -75 -123
-156 -333 -395 -348 -395 -14 0 -274 223 -384 329 l-89 86 12 81 12 81 -31 44
-30 44 0 385 c0 212 4 423 8 470 10 97 52 248 100 365 60 142 53 139 96 51 41
-85 75 -120 108 -111 32 9 116 104 142 160 21 44 32 105 20 105 -18 0 -36 -15
-36 -31 0 -32 -39 -98 -87 -150 -57 -61 -60 -59 -122 71 l-46 95 0 205 c-1
196 -2 205 -21 208 -16 2 -21 -6 -31 -58 -12 -66 -58 -171 -96 -222 -32 -43
-116 -189 -206 -360 -68 -129 -84 -175 -105 -303 -35 -208 -35 -207 -41 -370
-5 -136 0 -172 24 -164 8 3 13 52 16 154 3 108 12 201 35 333 31 181 32 185
92 300 81 156 185 340 213 377 12 17 36 54 52 83 l31 54 -3 -129 c-2 -124 -3
-130 -39 -207 -49 -105 -100 -253 -122 -356 -16 -75 -19 -136 -19 -530 l0
-445 27 -40 c26 -37 27 -46 20 -100 l-7 -59 -98 105 c-222 237 -308 410 -362
724 -28 167 -39 438 -20 535 3 14 8 41 11 60 21 123 112 249 353 490 165 164
458 429 475 430 5 0 63 -46 130 -102z"/>
<path d="M2714 5444 c-8 -3 -9 -17 -3 -42 4 -20 10 -48 13 -62 37 -195 69
-275 153 -385 106 -141 229 -333 280 -437 20 -41 22 -58 18 -140 -16 -362 -48
-484 -208 -803 -86 -172 -133 -225 -203 -225 -26 0 -51 21 -179 151 -133 136
-175 167 -175 130 0 -5 68 -79 151 -165 148 -152 153 -156 193 -156 49 0 113
28 142 61 55 61 229 422 259 536 35 132 58 329 59 503 1 79 -2 90 -36 157 -44
87 -165 274 -259 400 -37 51 -80 120 -94 154 -23 54 -68 229 -60 237 1 1 33
-33 71 -75 38 -43 71 -80 74 -83 43 -42 303 -354 367 -440 38 -50 66 -114 77
-172 24 -130 26 -157 33 -358 4 -151 3 -191 -9 -220 -18 -43 -160 -240 -211
-294 -37 -39 -58 -92 -72 -184 -7 -41 -6 -43 15 -40 17 2 24 11 26 33 7 69 28
128 54 155 34 35 129 160 191 250 l44 65 0 185 c0 308 -28 477 -95 578 -36 53
-147 190 -265 327 -27 32 -58 67 -68 79 -137 158 -254 286 -262 285 -5 0 -15
-3 -21 -5z"/>
<path d="M2726 4535 c-75 -26 -97 -66 -112 -210 -3 -33 -8 -69 -10 -80 -2 -11
-5 -55 -5 -98 -1 -135 62 -224 153 -218 25 1 73 54 97 107 54 113 47 354 -12
458 -26 47 -59 59 -111 41z m80 -66 c61 -119 49 -371 -23 -466 -33 -43 -48
-46 -82 -18 -65 56 -75 130 -46 340 17 123 33 154 86 171 40 14 44 12 65 -27z"/>
<path d="M836 5668 c23 -197 26 -245 29 -523 5 -418 -21 -572 -133 -785 -190
-361 -257 -491 -398 -772 -138 -275 -152 -308 -136 -317 15 -8 38 31 185 322
92 183 229 449 304 593 164 309 179 351 208 574 10 76 13 188 10 400 -2 162
-6 306 -8 320 -3 14 -8 59 -11 100 -15 165 -20 185 -42 188 -20 3 -20 1 -8
-100z"/>
<path d="M2721 2231 c-12 -8 -7 -25 28 -98 l43 -88 -53 -46 c-46 -41 -52 -49
-40 -63 12 -14 19 -11 64 29 l51 44 40 -79 c38 -75 57 -93 71 -70 3 5 -10 41
-30 79 -19 39 -35 73 -35 76 0 3 36 5 80 5 73 0 80 2 80 20 0 19 -7 20 -93 20
l-93 0 -44 90 c-25 49 -47 90 -50 90 -3 0 -11 -4 -19 -9z"/>
<path d="M2955 785 c-7 -5 -30 -35 -52 -65 -120 -164 -326 -327 -541 -427
-178 -83 -460 -165 -652 -188 -30 -4 -57 -8 -60 -10 -4 -2 -49 -7 -100 -10
-52 -4 -111 -9 -130 -11 -55 -6 -395 -5 -505 1 -92 5 -265 21 -325 30 -14 2
-47 6 -75 10 -99 12 -242 36 -361 60 -143 29 -140 29 -147 10 -4 -10 5 -17 31
-25 45 -13 260 -54 362 -70 41 -6 85 -13 98 -15 13 -2 53 -7 90 -10 37 -4 74
-8 82 -10 8 -2 49 -6 90 -9 41 -3 109 -8 150 -12 93 -7 446 -7 520 0 30 3 87
8 125 11 80 7 246 31 308 45 23 5 53 11 67 13 135 24 403 123 542 200 185 103
361 252 468 397 40 53 41 54 90 53 28 0 54 -1 59 -2 4 -1 34 -34 65 -75 264
-345 746 -584 1311 -651 156 -19 245 -23 475 -20 140 2 266 6 280 9 14 2 57 7
95 11 184 17 687 105 708 125 11 10 -3 40 -16 34 -18 -6 -347 -72 -397 -79
-25 -3 -70 -10 -100 -15 -30 -5 -80 -12 -110 -15 -30 -3 -73 -7 -95 -10 -135
-18 -238 -22 -460 -20 -280 3 -286 4 -580 52 -55 9 -180 42 -285 76 -354 115
-669 335 -833 581 l-26 40 -77 0 c-42 1 -82 -3 -89 -9z"/>
</g>
</svg>
