<?xml version="1.0" standalone="no"?>
<!DOCTYPE svg PUBLIC "-//W3C//DTD SVG 20010904//EN"
 "http://www.w3.org/TR/2001/REC-SVG-20010904/DTD/svg10.dtd">
<svg version="1.0" xmlns="http://www.w3.org/2000/svg"
 width="735.000000pt" height="731.000000pt" viewBox="0 0 735.000000 731.000000"
 preserveAspectRatio="xMidYMid meet">
<metadata>
Created by potrace 1.14, written by Peter Selinger 2001-2017
</metadata>
<g transform="translate(0.000000,731.000000) scale(0.100000,-0.100000)"
fill="#000000" stroke="none">
<path d="M3544 7263 c11 -74 53 -244 74 -301 l20 -52 -26 -1 c-80 -2 -126 -13
-229 -54 -63 -25 -132 -57 -155 -71 -187 -119 -547 -258 -656 -255 -47 1 -90
30 -103 69 -22 66 -2 255 35 343 8 19 -22 35 -36 21 -17 -17 -55 -234 -52
-291 7 -109 47 -168 123 -178 36 -5 41 -8 35 -26 -20 -65 -9 -125 32 -168 35
-37 69 -50 319 -120 627 -175 815 -233 954 -290 80 -33 181 -74 225 -90 58
-22 89 -41 121 -74 41 -41 94 -64 133 -56 26 5 131 -32 282 -101 272 -123 336
-156 374 -194 39 -39 76 -102 76 -129 0 -13 35 -27 65 -27 32 0 72 19 117 55
30 24 90 63 134 86 43 24 86 49 95 57 14 13 22 9 67 -31 28 -25 61 -62 73 -82
12 -19 58 -62 102 -94 78 -59 172 -163 251 -279 20 -30 46 -67 58 -83 22 -27
22 -28 4 -61 -24 -46 -93 -81 -195 -100 -46 -9 -89 -16 -97 -16 -8 0 -27 28
-42 63 -48 105 -143 249 -206 313 -55 54 -201 170 -246 194 -13 7 -21 5 -29
-4 -10 -12 7 -28 85 -87 181 -133 244 -208 345 -409 38 -75 56 -101 74 -106
19 -5 22 -10 16 -32 -11 -42 -3 -64 39 -112 81 -92 118 -215 118 -392 1 -65 3
-126 7 -137 7 -23 58 -49 90 -45 23 2 24 0 24 -64 -1 -37 7 -98 16 -137 20
-82 22 -198 5 -252 -7 -21 -24 -59 -39 -85 -28 -52 -25 -73 17 -94 12 -6 19
-14 15 -18 -4 -3 -8 -30 -10 -59 -5 -101 -13 -125 -58 -182 -18 -22 -64 -87
-102 -145 -39 -58 -83 -116 -98 -130 -48 -44 -58 -75 -45 -131 7 -29 21 -55
33 -64 25 -17 74 -19 112 -5 46 17 126 103 197 209 38 57 91 129 117 160 51
59 110 144 149 214 18 33 22 53 19 92 -4 38 0 55 16 76 19 26 20 43 21 341 l0
313 -38 72 c-22 43 -42 70 -49 66 -7 -4 -8 2 -3 18 4 13 9 56 13 95 l5 71 -64
109 c-143 242 -160 288 -159 414 1 37 -4 46 -90 167 -101 140 -165 211 -245
271 -44 32 -88 72 -98 88 -11 16 -47 56 -81 89 -38 36 -67 75 -74 97 -11 33
-33 52 -179 152 -251 173 -282 195 -347 246 -33 26 -106 81 -161 123 -56 41
-105 81 -109 87 -11 17 -86 49 -102 43 -9 -4 -13 4 -13 23 0 16 -6 36 -13 45
-7 9 -71 49 -142 89 -153 86 -242 148 -270 186 -73 102 -169 158 -295 173 -41
4 -84 7 -95 5 -11 -1 -43 -5 -71 -8 -70 -8 -171 -42 -369 -126 -288 -122 -418
-187 -411 -206 3 -8 6 -17 6 -19 0 -1 72 31 160 71 226 105 454 198 543 223
191 54 379 12 474 -107 69 -85 138 -137 308 -227 94 -50 135 -80 135 -100 0
-7 -21 -32 -47 -55 -164 -147 -189 -179 -233 -297 -10 -26 -18 -33 -39 -33
-32 0 -170 49 -366 130 -139 57 -292 104 -900 275 -281 79 -318 92 -350 125
-33 34 -38 86 -14 134 12 24 25 32 88 48 139 36 363 132 516 222 116 69 269
125 355 132 l75 5 30 -52 c29 -50 80 -99 103 -99 23 0 12 36 -17 57 -72 54
-147 251 -187 496 -5 28 -11 37 -26 37 -18 0 -20 -5 -14 -47z m1133 -1161
c332 -253 450 -341 611 -451 105 -73 192 -136 193 -139 0 -4 2 -15 4 -24 5
-28 -24 -54 -109 -98 -43 -22 -98 -58 -123 -79 -46 -41 -93 -64 -110 -52 -5 3
-20 27 -32 53 -26 55 -108 134 -172 165 -96 47 -446 201 -479 211 -19 6 -55
14 -80 17 -78 10 -98 16 -114 34 -16 17 -15 19 12 24 30 6 40 21 72 107 20 56
62 107 155 189 82 71 121 81 172 43z m1395 -1402 c-5 -34 52 -151 161 -335 58
-99 59 -101 54 -162 -7 -80 -26 -114 -90 -162 -87 -66 -199 -103 -227 -75 -5
5 -10 65 -11 134 -2 185 -45 331 -118 406 -42 43 -52 73 -35 105 11 22 24 29
81 39 66 12 155 49 168 70 12 20 21 9 17 -20z m258 -692 l35 -63 -1 -303 c-1
-296 -2 -304 -23 -325 -15 -16 -35 -22 -76 -24 -62 -2 -157 10 -197 26 l-27
10 24 43 c50 91 62 227 30 349 -10 35 -17 92 -17 126 0 49 -3 63 -16 66 -14 3
-14 5 3 11 71 27 146 71 180 105 22 21 42 39 45 40 3 1 21 -27 40 -61z m-115
-753 c51 -2 99 -6 104 -10 6 -3 11 -21 11 -39 0 -38 -74 -154 -172 -271 -32
-38 -71 -90 -85 -115 -84 -143 -182 -240 -244 -240 -32 0 -44 14 -52 57 -5 26
-1 39 21 65 15 18 31 35 35 37 5 2 42 54 82 115 41 62 90 132 109 155 42 50
56 97 59 191 2 61 4 69 20 64 9 -3 60 -7 112 -9z"/>
<path d="M3957 7298 c-8 -23 0 -78 17 -103 34 -52 127 -92 288 -126 304 -63
504 -11 546 144 9 33 9 37 -9 37 -12 0 -24 -13 -34 -37 -55 -130 -217 -160
-530 -98 -148 29 -247 92 -240 153 4 34 -27 58 -38 30z"/>
<path d="M5230 7301 c0 -33 56 -217 90 -298 112 -261 262 -473 545 -767 11
-12 49 -55 85 -96 36 -41 68 -77 71 -80 19 -16 184 -232 264 -345 306 -431
520 -852 580 -1141 16 -76 20 -264 10 -424 -19 -297 -34 -442 -71 -670 -61
-373 -154 -668 -293 -922 -275 -504 -670 -961 -994 -1152 -179 -105 -243 -117
-587 -112 -151 3 -284 6 -295 9 -11 2 -42 8 -70 11 -136 19 -233 71 -273 144
-67 122 11 379 157 515 65 60 130 102 281 177 312 155 773 560 944 830 46 71
91 168 100 215 4 17 9 41 12 55 6 32 6 291 0 333 -3 17 -8 59 -11 91 -4 33
-15 106 -25 163 -94 509 -271 922 -489 1142 -171 173 -342 263 -501 264 -116
1 -197 -41 -243 -128 -18 -34 -22 -59 -24 -160 -1 -66 2 -145 7 -175 4 -30 11
-75 15 -100 30 -210 104 -426 239 -700 202 -408 250 -572 207 -703 -21 -62
-34 -72 -534 -394 -767 -493 -921 -632 -951 -857 -16 -120 61 -237 179 -271
146 -42 192 -58 228 -81 154 -99 164 -381 22 -609 -103 -166 -256 -269 -417
-282 -178 -14 -400 109 -530 295 -92 133 -137 327 -112 487 11 73 52 180 123
321 186 371 356 559 657 730 373 211 695 448 879 646 119 129 144 196 139 373
-3 127 -17 212 -55 347 -52 188 -105 293 -214 428 -133 165 -239 375 -293 581
-23 87 -30 138 -36 259 -5 89 -30 184 -62 236 -47 76 -162 182 -289 265 -113
74 -189 99 -524 169 -308 65 -450 118 -544 200 -90 80 -274 388 -372 623 -20
48 -33 67 -47 67 -24 0 -23 -9 8 -82 80 -190 201 -408 303 -546 119 -161 241
-216 669 -307 341 -71 401 -94 549 -203 202 -150 259 -245 269 -446 6 -124 20
-202 60 -324 63 -194 147 -351 275 -514 169 -214 262 -493 263 -783 0 -166
-16 -198 -166 -349 -109 -108 -281 -256 -263 -226 4 8 17 27 27 43 25 36 74
170 82 227 15 96 55 155 112 166 33 6 53 38 30 47 -19 7 -85 -19 -113 -45 -35
-33 -49 -62 -66 -148 -38 -183 -113 -310 -184 -310 -60 0 -109 48 -280 274
-59 77 -132 170 -162 206 -97 117 -264 274 -359 337 -128 86 -302 167 -403
189 -32 6 -126 7 -137 0 -10 -6 -103 46 -121 68 -16 19 -23 18 123 20 83 2
121 6 124 14 2 7 8 9 14 6 6 -4 9 -1 6 7 -4 11 -32 14 -129 15 -142 1 -167 -4
-186 -33 -12 -18 -11 -24 9 -47 35 -39 139 -97 161 -90 94 30 321 -51 524
-187 112 -75 307 -276 458 -473 249 -324 266 -341 351 -341 29 0 50 -3 46 -6
-69 -59 -315 -217 -472 -304 -244 -135 -400 -276 -538 -484 -85 -128 -206
-357 -247 -465 -89 -235 -46 -508 110 -701 134 -166 321 -269 493 -274 139 -3
266 52 383 169 87 86 146 181 185 295 22 65 27 99 27 180 2 205 -71 319 -235
368 -29 8 -85 25 -124 36 -116 34 -168 99 -168 212 1 54 7 78 37 140 77 160
249 290 1159 879 106 69 210 140 230 158 92 83 96 239 11 467 -14 39 -81 185
-148 325 -128 264 -176 391 -220 570 -55 233 -71 468 -36 546 63 137 255 157
451 46 125 -72 274 -209 350 -322 63 -94 151 -268 199 -393 156 -407 242 -961
187 -1200 -35 -148 -139 -302 -345 -508 -244 -244 -462 -411 -694 -530 -87
-44 -189 -106 -228 -136 -150 -117 -241 -298 -242 -479 0 -173 106 -257 383
-299 70 -11 595 -14 650 -4 339 63 752 434 1132 1019 198 303 297 523 378 835
34 134 87 408 95 500 3 33 8 67 10 75 2 8 7 47 11 85 3 39 8 84 9 100 2 17 7
73 10 125 21 279 21 484 0 584 -54 263 -226 617 -494 1021 -177 267 -349 482
-582 729 -288 306 -468 602 -540 891 -17 69 -25 85 -40 85 -11 0 -19 -4 -19
-9z"/>
<path d="M4317 6888 c-44 -22 -72 -76 -62 -116 19 -76 84 -127 595 -472 173
-116 342 -231 375 -253 101 -70 312 -289 580 -602 33 -38 62 -72 65 -75 3 -3
41 -48 84 -100 43 -52 86 -104 95 -115 52 -63 185 -240 228 -305 115 -172 144
-257 189 -545 5 -33 14 -79 45 -235 35 -173 64 -230 107 -204 38 24 43 55 45
329 3 302 -3 383 -33 449 -17 39 -137 200 -160 216 -4 3 -33 41 -65 85 -95
132 -137 228 -200 450 -19 70 -44 144 -55 164 -24 49 -72 90 -157 137 -193
105 -289 180 -346 271 -14 22 -43 90 -63 150 -20 59 -45 125 -57 145 -18 34
-67 68 -96 68 -22 0 -86 38 -119 71 -48 47 -78 114 -87 189 -11 95 -18 120
-43 143 -33 31 -128 60 -287 87 -66 12 -191 34 -278 51 -216 40 -253 42 -300
17z m119 -27 c27 -5 69 -12 94 -16 25 -3 63 -10 85 -15 22 -5 56 -11 75 -15
19 -3 46 -8 60 -10 14 -3 36 -8 50 -10 14 -3 56 -10 94 -15 104 -15 217 -47
245 -68 28 -20 33 -37 51 -149 19 -121 83 -209 183 -252 127 -56 125 -53 178
-224 53 -177 153 -282 389 -409 111 -60 124 -70 153 -106 15 -20 39 -74 53
-121 107 -366 134 -420 333 -666 148 -185 145 -172 144 -536 0 -279 -4 -339
-22 -339 -17 0 -80 292 -125 580 -9 62 -47 173 -83 245 -62 123 -224 347 -406
560 -33 39 -80 95 -106 125 -81 96 -254 292 -326 370 -208 224 -240 250 -675
540 -455 304 -544 371 -576 432 -19 37 -3 75 38 93 40 17 35 17 94 6z"/>
<path d="M2395 4766 c-237 -62 -418 -175 -488 -304 -75 -137 -73 -362 4 -514
79 -156 150 -210 512 -392 161 -80 302 -153 313 -161 17 -14 5 -15 -136 -9
-85 3 -198 8 -250 10 -52 2 -255 6 -450 9 -426 6 -536 11 -700 31 -419 52
-674 166 -850 381 -24 29 -115 132 -192 217 -33 37 -39 39 -52 26 -14 -13 -11
-19 22 -55 20 -22 89 -98 151 -170 63 -71 144 -154 180 -183 151 -120 378
-205 659 -246 194 -28 277 -33 812 -42 201 -4 392 -8 425 -9 33 -1 137 -6 230
-10 280 -12 270 -13 270 10 0 25 -75 68 -418 240 -283 141 -352 185 -424 274
-58 71 -80 116 -104 208 -44 176 -8 341 100 448 85 84 226 157 394 203 98 26
282 23 377 -6 98 -31 188 -78 306 -157 100 -69 233 -149 344 -207 181 -97 227
-122 255 -138 17 -10 71 -39 120 -65 269 -144 456 -255 558 -331 62 -47 167
-151 167 -166 0 -4 12 -8 26 -8 l25 0 -18 32 c-41 73 -181 189 -348 290 -119
72 -130 78 -550 306 -198 107 -371 202 -385 210 -14 9 -83 54 -154 100 -236
155 -337 193 -521 198 -101 3 -135 -1 -210 -20z"/>
<path d="M6958 4313 c-10 -2 -18 -5 -18 -7 0 -1 20 -62 45 -136 126 -373 258
-906 291 -1170 3 -30 8 -63 9 -72 24 -125 24 -551 1 -619 -3 -8 -7 -38 -10
-68 -7 -68 -42 -263 -66 -361 -119 -502 -316 -883 -606 -1174 -179 -179 -423
-338 -594 -388 -360 -104 -830 -186 -1172 -205 -427 -22 -724 7 -1019 103 -89
29 -113 33 -120 23 -12 -20 -3 -25 91 -58 223 -77 522 -118 826 -115 236 3
335 11 639 50 256 33 744 146 870 202 156 69 336 194 482 335 l93 90 0 -372
c0 -364 0 -371 20 -371 20 0 20 7 20 379 0 268 -3 380 -11 383 -6 2 11 31 38
63 162 195 313 484 408 775 34 105 89 317 100 385 3 17 7 41 10 55 5 27 7 36
29 180 36 225 40 530 10 730 -10 71 -44 276 -48 296 -62 302 -140 594 -242
907 -30 92 -56 166 -57 166 -1 -1 -10 -3 -19 -6z"/>
<path d="M2768 3104 c-20 -19 -1016 -26 -1556 -11 -270 8 -272 8 -272 -12 0
-19 6 -21 53 -21 28 -1 156 -4 282 -8 350 -10 1223 -8 1375 3 207 15 306 13
326 -6 14 -15 14 -19 1 -45 -9 -16 -41 -58 -73 -94 -131 -150 -163 -187 -232
-274 -167 -208 -280 -398 -382 -646 -28 -69 -105 -234 -171 -367 -65 -133
-119 -251 -119 -262 0 -11 11 -33 24 -48 23 -27 28 -28 125 -29 178 -3 304 40
396 135 92 95 127 166 246 503 175 497 189 524 374 716 137 144 265 232 385
266 74 21 106 25 242 25 105 1 116 3 114 19 -3 15 -18 17 -157 16 -122 0 -166
-4 -209 -18 -133 -45 -239 -115 -371 -245 -215 -214 -242 -262 -414 -756 -112
-323 -156 -414 -237 -494 -85 -84 -191 -125 -339 -130 -81 -3 -116 6 -130 31
-9 16 6 53 89 216 55 109 135 278 177 377 153 359 245 501 569 879 146 170
166 208 131 246 -25 28 -84 41 -170 39 -41 -1 -76 -3 -77 -5z"/>
<path d="M296 3029 c-41 -33 -69 -121 -63 -207 8 -134 97 -274 306 -482 230
-229 501 -408 677 -449 115 -27 311 -17 368 18 43 27 58 56 63 121 8 86 -28
147 -169 292 -173 178 -369 337 -588 477 -325 208 -524 285 -594 230z m177
-50 c117 -46 233 -110 427 -235 275 -177 625 -495 694 -631 31 -62 14 -145
-36 -171 -48 -26 -207 -35 -308 -17 -176 30 -478 232 -721 482 -242 248 -313
437 -216 576 18 26 23 28 64 22 24 -3 67 -15 96 -26z"/>
<path d="M1004 2948 c-3 -11 -4 -21 -2 -22 12 -10 1225 -543 1284 -565 l74
-27 -35 -34 c-48 -47 -127 -172 -180 -284 -68 -145 -119 -287 -216 -606 -28
-93 -37 -110 -77 -149 -79 -77 -205 -121 -353 -124 -241 -5 -452 56 -614 175
-203 150 -435 428 -651 780 -47 78 -109 184 -136 235 -45 84 -68 108 -82 85
-8 -14 104 -218 217 -396 28 -43 51 -88 52 -100 1 -11 11 -66 23 -121 41 -189
50 -340 46 -760 -2 -214 -5 -401 -7 -415 -3 -14 -8 -76 -11 -138 -4 -62 -11
-145 -15 -184 -6 -56 -5 -71 7 -75 18 -7 31 14 33 52 0 17 2 41 3 55 2 14 7
70 10 125 4 55 9 129 12 165 13 163 18 624 9 775 -10 170 -17 243 -30 324 -2
13 -7 45 -10 70 -5 44 -5 45 10 24 159 -214 335 -409 459 -507 39 -32 68 -66
88 -104 93 -174 279 -378 448 -491 231 -154 504 -253 825 -300 218 -32 553
-32 765 -1 36 5 68 10 73 10 9 0 9 12 -2 28 -6 10 -22 11 -72 3 -226 -36 -567
-31 -814 10 -387 64 -693 205 -926 427 -88 83 -193 213 -238 292 l-22 39 59
-30 c97 -48 260 -85 417 -93 l57 -4 36 -63 c54 -98 169 -206 272 -256 114 -56
182 -72 330 -80 185 -9 373 21 562 88 77 28 86 33 78 49 -9 17 -14 17 -92 -11
-158 -57 -297 -82 -468 -85 -126 -2 -170 1 -234 17 -112 27 -213 80 -290 150
-67 61 -150 174 -140 190 3 5 17 9 32 9 85 0 242 65 308 127 51 47 57 58 95
180 142 452 207 614 315 779 32 48 98 119 139 148 11 8 18 16 15 18 -3 3 -43
17 -90 32 -47 15 -157 59 -245 98 -792 350 -1044 461 -1067 473 -25 12 -28 11
-34 -7z"/>
</g>
</svg>
