<?xml version="1.0" standalone="no"?>
<!DOCTYPE svg PUBLIC "-//W3C//DTD SVG 20010904//EN"
 "http://www.w3.org/TR/2001/REC-SVG-20010904/DTD/svg10.dtd">
<svg version="1.0" xmlns="http://www.w3.org/2000/svg"
 width="690.000000pt" height="744.000000pt" viewBox="0 0 690.000000 744.000000"
 preserveAspectRatio="xMidYMid meet">
<metadata>
Created by potrace 1.14, written by Peter Selinger 2001-2017
</metadata>
<g transform="translate(0.000000,744.000000) scale(0.100000,-0.100000)"
fill="#000000" stroke="none">
<path d="M1399 7383 c-18 -38 -22 -65 -22 -133 0 -87 0 -86 68 -249 50 -118
105 -333 121 -471 2 -25 8 -76 13 -114 21 -181 -5 -437 -59 -579 -26 -68 -100
-181 -166 -252 -114 -123 -260 -293 -314 -365 -179 -242 -324 -550 -437 -930
-40 -135 -109 -410 -118 -472 -4 -23 -8 -45 -10 -49 -2 -3 -7 -21 -10 -40 -3
-19 -10 -54 -15 -79 -26 -121 -50 -285 -50 -339 0 -74 -25 -134 -76 -183 -21
-21 -42 -38 -46 -38 -15 0 -36 -58 -53 -150 -24 -125 -24 -370 -1 -489 20
-105 136 -529 185 -678 20 -62 36 -113 35 -113 -1 0 -26 30 -56 67 -117 144
-201 282 -259 428 -33 82 -39 104 -65 215 -21 87 -25 284 -8 372 40 209 134
407 260 547 39 44 42 50 28 62 -15 12 -22 8 -57 -31 -91 -102 -189 -276 -236
-420 -65 -202 -61 -459 10 -681 28 -87 116 -268 176 -359 50 -76 160 -216 221
-280 18 -19 45 -55 59 -80 44 -75 83 -120 126 -142 47 -24 110 -21 259 13 91
20 155 24 174 11 7 -4 26 -34 44 -67 17 -33 42 -71 53 -83 54 -59 133 -68 207
-26 25 15 58 28 73 30 34 5 189 81 277 137 483 308 665 812 519 1439 -12 51
-35 131 -52 176 -24 69 -33 83 -48 79 -14 -4 -21 3 -29 29 -10 29 -8 39 14 76
30 52 64 154 111 336 131 506 280 781 472 870 48 22 73 26 138 26 309 1 468
-240 452 -684 -3 -85 -8 -164 -10 -175 -3 -11 -8 -42 -11 -70 -26 -192 -95
-432 -351 -1215 -107 -325 -142 -442 -196 -650 -26 -102 -48 -186 -47 -188 0
-1 -3 -28 -7 -60 -15 -116 -13 -165 11 -261 35 -142 95 -288 172 -415 23 -37
42 -70 42 -73 0 -2 28 -41 62 -86 341 -448 785 -611 1303 -477 61 16 147 43
191 60 43 18 131 45 194 60 440 109 781 365 950 714 110 227 141 387 135 691
-2 110 -6 211 -8 225 -3 14 -8 48 -12 75 -4 28 -9 57 -10 65 -25 117 -40 180
-61 259 -54 205 -79 411 -77 641 2 165 18 263 61 354 41 87 74 122 155 160 94
45 164 58 311 59 177 2 269 -9 625 -77 159 -31 161 -31 161 -8 0 14 -31 23
-197 55 -109 21 -214 40 -233 43 -19 3 -48 7 -65 9 -144 23 -364 25 -470 5
-225 -42 -325 -144 -372 -380 -17 -87 -24 -321 -12 -430 5 -41 11 -97 14 -125
3 -27 7 -59 9 -70 2 -11 7 -40 11 -65 3 -25 24 -117 45 -205 22 -88 41 -171
44 -185 2 -14 7 -36 10 -50 3 -14 7 -41 10 -60 3 -19 7 -55 11 -80 16 -123 21
-320 10 -420 -47 -436 -254 -766 -615 -981 -134 -81 -289 -143 -440 -179 -52
-12 -135 -38 -184 -57 -296 -114 -578 -138 -822 -68 -326 94 -610 354 -797
730 -92 185 -136 341 -130 460 9 174 70 397 313 1145 191 585 266 846 284 980
7 48 13 87 22 135 20 108 15 381 -9 495 -48 228 -187 376 -387 410 -331 58
-551 -219 -736 -925 -64 -246 -97 -335 -133 -354 -18 -10 -17 -15 16 -101 54
-146 68 -224 67 -405 0 -141 -3 -172 -27 -266 -45 -177 -132 -364 -224 -486
-24 -32 -81 -114 -127 -183 -165 -251 -287 -395 -390 -462 -103 -66 -166 -46
-226 72 -43 86 -70 103 -150 97 -36 -2 -99 -12 -140 -21 -104 -24 -178 -28
-211 -11 -92 48 -177 246 -308 720 -70 256 -88 332 -99 435 -14 115 -6 293 17
398 20 90 22 95 71 139 72 65 91 108 101 228 17 229 126 728 227 1045 145 453
312 750 600 1069 138 152 157 174 196 225 168 220 207 597 110 1056 -29 142
-59 236 -115 365 -38 89 -43 109 -42 175 0 56 5 85 21 116 16 31 18 44 9 53
-18 18 -24 14 -48 -36z m805 -4558 c18 -78 23 -100 32 -160 3 -22 9 -60 14
-84 9 -49 6 -315 -4 -371 -25 -134 -70 -272 -123 -370 -109 -201 -309 -387
-542 -505 l-74 -37 60 69 c72 82 143 177 250 338 44 66 110 164 146 217 89
132 149 260 192 410 16 58 20 73 35 163 12 65 5 340 -9 384 -6 19 -7 30 -2 25
5 -5 16 -40 25 -79z"/>
</g>
</svg>
