<?xml version="1.0" standalone="no"?>
<!DOCTYPE svg PUBLIC "-//W3C//DTD SVG 20010904//EN"
 "http://www.w3.org/TR/2001/REC-SVG-20010904/DTD/svg10.dtd">
<svg version="1.0" xmlns="http://www.w3.org/2000/svg"
 width="710.000000pt" height="762.000000pt" viewBox="0 0 710.000000 762.000000"
 preserveAspectRatio="xMidYMid meet">
<metadata>
Created by potrace 1.14, written by Peter Selinger 2001-2017
</metadata>
<g transform="translate(0.000000,762.000000) scale(0.100000,-0.100000)"
fill="#000000" stroke="none">
<path d="M5695 7612 c-5 -4 -11 -37 -11 -73 -2 -74 -31 -152 -82 -217 -16 -21
-33 -50 -40 -67 -20 -57 -71 -270 -97 -409 -78 -424 -37 -834 96 -974 316
-330 578 -728 769 -1167 150 -347 221 -590 344 -1187 30 -143 40 -175 70 -220
46 -69 72 -133 81 -194 7 -54 8 -410 0 -489 -11 -120 -16 -171 -20 -185 -2 -8
-7 -40 -10 -70 -17 -146 -89 -423 -151 -582 -120 -308 -230 -403 -419 -364
-71 15 -121 15 -151 0 -17 -8 -65 -50 -107 -94 -83 -85 -112 -99 -184 -85 -59
10 -134 49 -173 87 -390 390 -647 841 -714 1254 -19 115 -19 310 0 399 17 80
55 169 87 203 l22 23 -29 82 c-83 239 -301 778 -416 1034 -15 32 -37 53 -102
96 -136 91 -236 127 -352 128 -182 1 -323 -154 -390 -431 -44 -182 -53 -321
-31 -470 41 -277 197 -849 445 -1630 84 -266 110 -370 125 -510 4 -30 8 -68
11 -85 2 -16 4 -84 4 -150 2 -440 -163 -788 -478 -1006 -120 -83 -314 -165
-449 -188 -32 -5 -74 -13 -93 -16 -69 -13 -375 -13 -470 0 -292 40 -608 138
-821 256 -40 21 -74 39 -76 39 -18 0 -204 141 -275 209 -255 242 -380 527
-393 896 -7 197 15 346 82 560 47 152 76 278 118 510 2 17 7 50 11 75 3 25 7
56 9 69 2 12 7 60 10 105 4 44 9 92 11 106 8 51 4 307 -5 357 -25 130 -113
224 -255 273 -179 61 -492 42 -1023 -62 -150 -29 -163 -33 -163 -53 l0 -21
108 22 c144 31 382 72 462 80 36 3 67 8 70 9 10 6 194 18 270 18 299 1 458
-91 494 -287 13 -66 6 -397 -9 -456 -2 -8 -7 -46 -11 -85 -3 -38 -8 -72 -9
-75 -2 -3 -6 -30 -10 -60 -17 -137 -73 -378 -130 -555 -85 -267 -94 -589 -26
-853 59 -228 164 -408 340 -582 103 -102 234 -199 364 -269 155 -83 395 -172
587 -216 71 -17 164 -35 205 -41 28 -3 59 -8 70 -11 11 -3 106 -6 210 -8 241
-4 374 17 565 88 342 127 585 386 692 737 71 234 76 555 13 853 -19 93 -50
198 -144 497 -104 328 -123 391 -196 645 -58 201 -145 532 -159 605 -2 14 -9
45 -14 70 -6 25 -13 65 -17 90 -4 25 -10 63 -15 84 -9 39 -6 229 4 276 3 13 8
42 11 65 20 141 91 308 167 390 90 99 194 120 341 71 78 -26 198 -92 247 -136
38 -34 207 -431 386 -905 68 -182 80 -223 70 -235 -118 -140 -140 -463 -56
-790 39 -149 128 -360 215 -510 102 -174 271 -394 427 -555 82 -86 105 -103
159 -124 77 -30 145 -37 191 -22 21 7 66 43 114 91 100 101 110 105 212 86
170 -32 279 16 368 164 23 38 37 51 69 60 83 25 188 166 277 373 48 111 145
400 153 459 14 90 14 392 0 473 -24 148 -66 271 -119 350 -35 52 -131 139
-179 163 -43 22 -46 26 -57 80 -6 31 -32 152 -57 267 -25 116 -46 217 -48 226
-11 57 -105 365 -142 469 -126 349 -317 716 -516 995 -85 119 -222 291 -287
360 -122 129 -124 132 -159 245 -41 132 -59 409 -36 577 12 90 25 178 30 203
3 14 8 41 11 60 3 19 24 107 46 194 34 134 46 168 77 210 58 80 84 150 87 239
4 76 -3 90 -31 69z m1178 -4322 c63 -68 117 -184 147 -310 18 -74 23 -132 26
-265 4 -220 -5 -282 -70 -478 -94 -285 -188 -470 -281 -556 -24 -22 -48 -41
-53 -41 -5 0 10 48 34 108 67 167 140 444 159 602 3 30 11 85 16 122 15 111
22 235 22 393 -1 274 -13 331 -97 458 -20 30 -36 57 -36 61 0 18 87 -44 133
-94z"/>
<path d="M4752 2593 c3 -539 208 -992 568 -1257 76 -57 157 -99 170 -91 19 12
9 33 -22 46 -104 43 -320 241 -409 375 -108 161 -180 331 -222 524 -34 151
-41 225 -42 397 0 141 0 143 -22 143 -22 0 -22 -2 -21 -137z"/>
</g>
</svg>
