<?xml version="1.0" standalone="no"?>
<!DOCTYPE svg PUBLIC "-//W3C//DTD SVG 20010904//EN"
 "http://www.w3.org/TR/2001/REC-SVG-20010904/DTD/svg10.dtd">
<svg version="1.0" xmlns="http://www.w3.org/2000/svg"
 width="646.000000pt" height="915.000000pt" viewBox="0 0 646.000000 915.000000"
 preserveAspectRatio="xMidYMid meet">
<metadata>
Created by potrace 1.14, written by Peter Selinger 2001-2017
</metadata>
<g transform="translate(0.000000,915.000000) scale(0.100000,-0.100000)"
fill="#000000" stroke="none">
<path d="M2765 9126 c-16 -7 -38 -22 -47 -32 -52 -59 -137 -335 -173 -559 -10
-68 -18 -291 -11 -330 7 -36 7 -36 52 -32 27 2 44 0 45 -7 0 -6 2 -20 4 -31
25 -134 25 -994 0 -1034 -1 -3 -6 -31 -10 -61 -18 -149 -206 -516 -363 -710
-92 -114 -186 -191 -305 -249 l-98 -49 -33 42 c-18 22 -63 85 -100 139 -173
251 -258 330 -565 529 -161 103 -402 286 -616 466 -11 10 -60 51 -110 92 -49
41 -126 106 -170 145 -243 213 -225 199 -241 183 -13 -13 1 -29 128 -139 79
-69 186 -160 238 -204 52 -44 97 -82 100 -85 15 -17 283 -230 390 -311 136
-104 226 -166 365 -252 174 -108 284 -219 453 -455 67 -95 122 -177 122 -181
0 -5 -10 -18 -23 -28 -105 -85 -249 -379 -282 -577 -3 -17 -10 -56 -15 -86
-20 -115 -27 -311 -15 -430 45 -437 223 -800 552 -1127 146 -145 125 -138 418
-137 265 0 361 23 520 124 44 28 98 55 120 61 58 16 160 14 235 -6 82 -21 227
-89 311 -146 61 -41 68 -43 151 -47 105 -5 224 10 373 45 293 69 511 220 614
426 80 159 92 311 50 657 -19 164 -61 365 -89 435 -4 11 -20 52 -36 90 -55
140 -159 322 -312 550 -47 69 -51 57 58 172 91 96 205 219 279 298 31 33 121
130 201 215 80 86 199 213 265 284 66 71 125 134 130 140 6 6 76 81 155 166
80 85 149 160 155 166 47 51 242 260 250 268 6 6 46 49 90 96 44 47 112 119
150 161 39 41 126 135 195 208 117 126 140 159 114 168 -11 4 -39 -25 -259
-262 -66 -71 -156 -168 -200 -214 -122 -130 -208 -223 -225 -241 -14 -16 -39
-42 -215 -230 -39 -41 -126 -135 -195 -209 -69 -74 -138 -149 -155 -166 -16
-18 -84 -90 -150 -161 -121 -130 -219 -235 -349 -374 -39 -42 -129 -138 -200
-214 -72 -75 -135 -145 -142 -154 -18 -25 -14 -31 -197 273 -282 468 -369 706
-404 1115 -13 152 -4 672 12 688 2 2 26 5 54 6 27 1 53 4 56 8 9 9 10 325 1
403 -29 259 -116 499 -222 610 -52 54 -129 81 -206 72 -57 -7 -159 -51 -185
-79 -34 -38 -50 -40 -78 -11 -14 15 -25 33 -25 39 0 13 -68 44 -160 72 -77 23
-183 27 -225 8z m255 -62 c68 -23 86 -34 108 -66 48 -67 90 -70 152 -12 61 56
180 84 257 61 78 -24 159 -140 221 -318 17 -47 33 -101 36 -121 3 -19 7 -41
10 -49 20 -60 33 -284 27 -471 l-1 -48 -74 0 c-87 0 -117 -11 -234 -86 -184
-119 -336 -189 -378 -173 -12 4 -48 47 -79 96 -70 108 -88 128 -144 161 -38
22 -56 26 -121 25 -42 0 -86 -6 -98 -12 -21 -11 -22 -10 -23 36 -2 62 -8 115
-14 122 -3 2 -22 6 -43 7 -20 1 -41 2 -46 3 -16 2 1 280 24 391 27 136 73 295
111 386 23 56 37 76 62 88 46 24 146 16 247 -20z m-122 -1058 c37 -19 75 -63
132 -151 69 -109 84 -120 155 -115 43 2 211 85 340 166 107 68 156 94 175 94
6 0 7 -51 3 -132 -13 -242 -6 -580 13 -696 4 -23 28 -157 40 -218 18 -93 103
-323 169 -454 73 -146 264 -462 444 -735 220 -336 302 -497 355 -696 26 -96
60 -284 70 -389 3 -30 9 -84 12 -120 9 -84 8 -212 0 -274 -29 -212 -172 -395
-393 -506 -84 -42 -235 -95 -295 -104 -21 -3 -57 -10 -80 -16 -24 -6 -100 -13
-170 -16 l-126 -7 -64 40 c-141 89 -271 145 -388 167 l-65 12 -3 232 c-2 224
-3 232 -22 232 -19 0 -20 -7 -20 -232 l0 -233 -30 -2 c-54 -4 -104 -22 -160
-57 -89 -57 -170 -94 -255 -117 -69 -19 -108 -22 -280 -23 -110 -1 -217 3
-239 7 -31 7 -61 31 -156 125 -293 293 -463 619 -525 1007 -14 89 -14 409 0
498 23 151 102 381 169 492 68 114 177 224 245 246 49 16 150 79 212 131 120
101 254 287 366 511 98 194 133 298 148 427 3 30 9 69 12 85 3 17 6 208 6 425
l2 394 40 12 c50 14 125 10 163 -10z"/>
<path d="M3150 5545 c0 -818 0 -825 20 -825 20 0 20 7 20 825 0 818 0 825 -20
825 -20 0 -20 -7 -20 -825z"/>
<path d="M3154 3308 c14 -262 19 -344 22 -358 1 -8 3 -25 3 -37 1 -16 7 -23
21 -23 18 0 20 5 16 63 -3 34 -8 116 -12 182 -3 66 -8 131 -9 145 -2 14 -4 51
-4 83 -1 51 -3 57 -22 57 -21 0 -21 -3 -15 -112z"/>
<path d="M4832 3158 c-8 -8 -8 -17 -1 -31 46 -85 79 -269 79 -444 0 -109 1
-113 21 -113 21 0 22 1 16 163 -6 175 -8 185 -38 295 -30 111 -54 153 -77 130z"/>
<path d="M1205 3090 c-77 -152 -121 -332 -130 -527 -3 -82 -2 -102 10 -107 22
-8 27 8 30 97 8 209 55 393 140 545 14 24 22 48 19 53 -14 23 -37 3 -69 -61z"/>
<path d="M3116 2671 c-3 -5 15 -52 39 -105 25 -53 46 -105 48 -117 2 -16 -12
-26 -78 -54 -144 -61 -157 -69 -143 -88 12 -16 15 -16 52 3 62 31 188 82 192
77 8 -8 34 -141 34 -174 0 -27 4 -33 21 -33 21 0 21 3 15 68 -3 37 -10 83 -16
102 -5 19 -10 40 -10 46 0 17 100 40 185 43 24 1 31 6 32 22 2 21 -1 22 -65
16 -37 -4 -90 -13 -119 -20 l-52 -14 -17 46 c-9 25 -33 79 -52 119 -33 66 -53
85 -66 63z"/>
<path d="M5058 2021 c-15 -5 -13 -17 26 -106 180 -418 440 -824 662 -1035 100
-95 189 -159 288 -206 64 -30 79 -35 87 -23 14 22 12 24 -46 48 -101 42 -206
120 -325 240 -156 157 -269 312 -421 576 -59 104 -199 388 -229 465 -17 45
-21 49 -42 41z"/>
<path d="M1090 1833 c-12 -3 -15 -24 -16 -111 -2 -132 -18 -243 -51 -345 -29
-93 -51 -134 -113 -207 -106 -126 -216 -286 -278 -402 -38 -73 -75 -177 -68
-194 10 -26 34 -14 41 18 24 113 200 401 330 542 109 117 172 315 179 568 3
112 -1 135 -24 131z"/>
<path d="M3172 554 c-64 -177 -251 -340 -542 -471 -52 -23 -95 -47 -94 -53 1
-5 2 -14 3 -20 3 -25 260 103 384 191 100 71 210 183 253 257 l30 53 41 -58
c164 -232 449 -407 731 -448 38 -5 42 -4 42 15 0 11 -4 21 -10 21 -5 1 -13 2
-17 3 -5 1 -30 5 -57 10 -67 11 -189 52 -266 91 -183 93 -354 259 -466 450 -9
16 -13 10 -32 -41z"/>
</g>
</svg>
