<?xml version="1.0" standalone="no"?>
<!DOCTYPE svg PUBLIC "-//W3C//DTD SVG 20010904//EN"
 "http://www.w3.org/TR/2001/REC-SVG-20010904/DTD/svg10.dtd">
<svg version="1.0" xmlns="http://www.w3.org/2000/svg"
 width="678.000000pt" height="1341.000000pt" viewBox="0 0 678.000000 1341.000000"
 preserveAspectRatio="xMidYMid meet">
<metadata>
Created by potrace 1.14, written by Peter Selinger 2001-2017
</metadata>
<g transform="translate(0.000000,1341.000000) scale(0.100000,-0.100000)"
fill="#000000" stroke="none">
<path d="M2942 13385 c-245 -55 -425 -225 -521 -489 -46 -129 -55 -209 -48
-449 4 -117 9 -228 12 -247 6 -40 13 -92 14 -102 1 -8 41 2 41 11 0 3 -4 35
-10 71 -23 168 -28 440 -10 553 12 79 51 189 92 266 93 172 219 280 388 333
70 21 91 23 300 22 245 -1 352 -14 492 -60 130 -43 248 -135 298 -234 66 -130
151 -435 175 -630 8 -61 17 -170 20 -223 1 -29 3 -57 4 -64 0 -6 9 -10 19 -9
19 3 20 29 8 199 -5 64 -4 97 2 97 6 0 12 11 14 25 5 41 22 30 36 -22 19 -70
21 -208 5 -286 -8 -37 -32 -120 -54 -183 -37 -102 -46 -119 -89 -157 -26 -24
-75 -58 -109 -76 -54 -29 -60 -34 -51 -52 6 -11 16 -17 22 -13 6 4 0 -8 -13
-25 -44 -60 -36 -250 15 -364 73 -163 170 -222 726 -441 303 -119 624 -269
722 -337 14 -11 29 -19 32 -19 13 0 161 -104 203 -143 113 -104 178 -307 262
-822 43 -265 60 -381 70 -470 9 -79 8 -472 -2 -510 -2 -11 -8 -45 -11 -75 -9
-70 -40 -215 -65 -305 -19 -67 -17 -84 11 -85 11 0 37 91 68 237 20 94 25 126
40 253 12 111 5 479 -13 590 -8 52 -18 115 -21 140 -3 25 -8 54 -10 65 -2 11
-13 79 -25 150 -23 142 -25 151 -47 275 -22 115 -20 107 -38 180 -48 187 -108
323 -174 394 -23 24 -186 146 -196 146 -2 0 -43 23 -92 52 -163 94 -426 214
-749 343 -176 70 -351 143 -390 162 -207 104 -288 212 -302 403 -9 128 -5 137
113 260 86 89 109 119 130 172 33 85 71 204 79 253 21 120 5 308 -30 361 -18
27 -51 31 -75 9 -15 -14 -17 -9 -28 58 -15 94 -72 303 -112 405 -96 249 -263
363 -598 405 -144 19 -450 20 -530 2z"/>
<path d="M2299 12428 c-32 -35 -41 -66 -40 -148 0 -91 39 -249 78 -322 33 -61
95 -125 126 -130 15 -2 26 -15 35 -43 57 -162 105 -243 174 -292 53 -38 65
-67 62 -141 -3 -66 -34 -121 -112 -197 -115 -114 -280 -191 -581 -270 -334
-88 -604 -202 -786 -330 -73 -52 -177 -161 -205 -214 -115 -226 -226 -659
-275 -1076 -3 -27 -8 -64 -10 -82 -21 -151 -27 -603 -11 -798 l8 -100 -99
-195 c-98 -194 -111 -230 -128 -370 -3 -25 -8 -61 -10 -80 -6 -45 -6 -401 -1
-460 3 -25 7 -83 11 -130 4 -47 8 -98 11 -115 10 -85 19 -290 19 -445 l0 -175
-29 -53 c-56 -101 -138 -176 -323 -299 -174 -115 -203 -140 -203 -179 0 -33
25 -46 88 -46 90 0 227 42 344 107 14 8 29 15 31 15 3 0 4 -26 2 -57 -6 -101
-16 -227 -20 -243 -6 -23 -18 -215 -19 -305 -2 -104 8 -133 50 -151 56 -24 99
-18 128 16 26 32 46 87 46 129 0 38 7 21 14 -34 23 -172 29 -189 70 -209 43
-20 79 -20 116 -1 26 13 36 30 46 78 1 4 2 64 3 134 0 69 3 124 5 122 2 -2 12
-49 21 -104 10 -55 24 -112 31 -127 18 -35 62 -58 112 -58 40 0 58 13 82 59
11 22 15 136 6 191 -3 14 -10 77 -16 140 -5 63 -13 129 -15 145 -5 30 -5 30
12 -5 9 -19 40 -85 68 -145 70 -150 118 -195 170 -161 34 22 48 83 40 175 -4
41 -8 78 -10 81 -2 3 -6 23 -9 45 -10 61 -29 127 -121 405 -46 140 -91 289
-100 330 -33 153 5 307 185 760 111 279 150 413 165 566 4 32 8 73 10 89 2 17
4 128 5 248 1 193 4 227 25 301 21 80 22 84 5 93 -16 7 -6 25 77 143 106 150
147 231 200 388 42 127 52 148 54 112 1 -14 1 -28 0 -32 0 -4 3 -18 8 -31 5
-13 12 -59 16 -103 9 -117 20 -180 86 -494 112 -532 112 -491 -16 -885 -63
-193 -97 -330 -110 -445 -3 -30 -37 -147 -75 -260 -73 -215 -97 -303 -106
-373 -3 -23 -7 -53 -10 -66 -3 -13 -7 -114 -10 -225 -2 -110 -7 -239 -10 -286
-12 -204 -12 -677 1 -770 25 -186 73 -404 204 -940 38 -157 86 -366 107 -465
33 -161 37 -197 38 -345 0 -91 -2 -205 -6 -255 -5 -49 -10 -118 -13 -153 -3
-34 -7 -79 -9 -100 -3 -20 -8 -66 -11 -102 -3 -36 -8 -78 -10 -95 -10 -80 -18
-242 -18 -350 1 -190 18 -257 133 -525 141 -328 217 -533 240 -651 17 -85 4
-157 -51 -282 -60 -135 -72 -200 -64 -338 l6 -117 -30 -54 c-51 -90 -36 -158
34 -158 22 0 42 13 83 56 l53 57 57 -13 c31 -7 60 -13 64 -14 14 -2 -34 -87
-58 -102 -25 -17 -49 -9 -90 28 -18 16 -23 17 -33 4 -17 -20 -9 -31 45 -62 32
-19 52 -24 71 -19 34 8 90 69 98 107 8 34 13 37 81 41 l51 4 -8 -41 c-15 -81
-32 -94 -110 -83 -31 4 -41 1 -49 -13 -8 -16 -5 -19 22 -25 51 -12 105 -7 132
10 18 12 28 33 40 82 8 36 18 69 23 73 15 14 63 21 63 10 0 -6 14 -28 31 -50
19 -23 31 -51 32 -72 2 -29 -1 -33 -26 -36 -16 -2 -49 4 -74 12 -26 9 -47 16
-49 16 -1 0 -4 -8 -7 -19 -3 -14 5 -22 42 -35 95 -34 161 -14 161 47 0 26 1
27 58 21 65 -6 139 12 156 38 16 25 -7 96 -59 187 -24 42 -47 93 -49 112 -3
18 -7 57 -11 84 -8 74 -18 110 -58 210 -86 216 -122 461 -92 625 3 19 19 117
36 218 16 101 36 218 45 260 9 42 18 88 20 102 3 14 18 81 34 150 22 94 30
162 35 275 6 153 10 211 20 345 9 128 15 194 20 230 3 19 7 58 9 85 3 28 9 95
15 150 16 150 21 268 26 604 5 318 13 560 19 570 2 3 7 44 10 91 12 150 26
242 56 350 31 115 78 301 85 340 13 69 20 90 51 151 67 135 91 126 134 -46 10
-38 32 -123 49 -187 17 -65 32 -128 35 -140 2 -13 14 -68 26 -123 47 -215 58
-319 59 -595 1 -135 4 -297 6 -360 6 -174 16 -398 20 -460 2 -30 6 -100 10
-155 3 -55 8 -111 10 -125 2 -14 7 -50 10 -80 4 -30 31 -194 60 -365 30 -170
57 -330 60 -355 3 -25 8 -52 10 -60 2 -8 7 -39 10 -69 4 -30 8 -63 11 -74 2
-11 6 -43 9 -71 5 -50 11 -97 20 -166 2 -19 7 -60 10 -90 3 -30 8 -66 10 -80
3 -14 7 -61 10 -104 4 -44 8 -82 9 -85 7 -12 21 -262 21 -386 0 -212 -30 -381
-83 -472 -42 -71 -65 -146 -58 -193 12 -86 89 -200 134 -200 17 0 16 -4 -15
-59 -30 -52 -54 -65 -109 -55 -37 7 -83 41 -94 70 -12 29 7 94 43 151 23 36
24 43 11 54 -18 14 -31 0 -69 -76 -47 -96 -36 -164 34 -210 39 -27 125 -41
150 -26 6 4 40 2 74 -6 34 -7 79 -11 100 -8 40 4 126 48 128 65 1 6 2 16 3 23
1 6 -2 18 -7 25 -6 8 -5 12 4 13 134 5 184 14 257 50 44 21 75 46 102 80 l39
49 25 -54 c40 -85 37 -92 -38 -102 -42 -6 -46 -5 -46 15 0 14 -6 21 -20 21
-18 0 -20 -7 -20 -54 0 -45 -4 -58 -22 -70 -23 -16 -77 -22 -79 -8 -3 24 -11
67 -13 70 -2 1 -11 0 -20 -4 -12 -5 -15 -14 -10 -43 6 -35 4 -37 -40 -60 l-47
-23 -40 20 c-37 18 -40 19 -49 3 -7 -14 -3 -21 18 -33 51 -30 84 -31 135 -3
29 15 64 25 88 25 54 0 96 24 112 63 12 29 21 34 73 45 76 16 85 22 86 60 1
39 -59 165 -76 159 -10 -4 -10 5 -1 41 26 100 -2 250 -101 535 -94 270 -105
309 -119 400 -20 134 -56 174 -160 179 -103 5 -198 -45 -243 -127 -11 -19 -11
-19 -13 5 -1 32 -12 134 -24 240 -2 14 -6 54 -10 90 -4 36 -8 76 -10 90 -2 14
-7 50 -10 80 -3 30 -8 73 -11 95 -4 22 -7 51 -9 65 -3 24 -15 110 -20 140 -2
8 -8 51 -15 95 -7 44 -14 89 -16 100 -5 25 -24 130 -30 170 -3 17 -9 53 -15
80 -5 28 -12 66 -15 85 -3 19 -11 71 -19 115 -27 155 -38 261 -50 495 -4 58
-8 137 -10 175 -2 39 -7 223 -10 410 -6 383 -12 546 -20 590 -3 17 -10 57 -16
90 -17 102 -48 242 -95 430 -63 251 -73 282 -98 312 -30 35 -81 36 -106 2 -41
-54 -89 -169 -109 -265 -12 -55 -41 -174 -65 -265 -51 -192 -53 -205 -71 -404
-4 -38 -8 -81 -11 -95 -6 -37 -13 -267 -19 -580 -5 -290 -11 -456 -19 -530 -3
-25 -8 -79 -12 -120 -3 -41 -8 -83 -9 -92 -2 -9 -6 -48 -10 -85 -3 -37 -8 -81
-10 -98 -2 -16 -7 -75 -10 -130 -3 -55 -8 -122 -11 -150 -2 -27 -6 -120 -10
-205 -4 -122 -12 -181 -34 -275 -16 -66 -32 -136 -35 -155 -3 -19 -10 -53 -15
-75 -5 -22 -18 -94 -29 -160 -12 -66 -23 -131 -26 -145 -3 -14 -6 -37 -7 -52
-3 -34 -5 -34 -30 -3 -33 42 -75 58 -158 58 -125 0 -139 -16 -150 -177 -5 -71
-20 -158 -41 -240 l-33 -129 -21 84 c-39 153 -106 331 -259 687 -92 213 -110
293 -110 477 0 60 11 249 19 315 11 104 17 160 20 205 5 57 14 150 21 215 3
25 7 124 9 220 2 156 -1 215 -20 339 -9 58 -71 335 -125 556 -94 387 -109 449
-139 585 -16 74 -33 151 -36 170 -3 19 -10 60 -15 90 -27 146 -33 461 -17 830
5 102 10 259 12 349 6 246 25 332 145 676 32 91 53 180 65 270 10 86 42 204
100 380 105 318 117 397 84 564 -10 47 -20 103 -23 123 -3 20 -19 97 -35 170
-17 73 -32 144 -34 158 -3 14 -8 36 -11 50 -18 78 -45 244 -51 320 -5 67 -19
150 -44 250 -4 20 -4 46 1 59 8 22 10 22 31 8 13 -8 43 -21 66 -28 36 -11 44
-10 52 2 13 21 11 29 -8 29 -28 0 -125 49 -156 78 -36 34 -51 63 -67 132 -13
55 -16 245 -5 333 6 42 4 47 -13 47 -27 0 -33 -41 -34 -211 0 -156 2 -170 48
-306 18 -57 34 -110 34 -117 0 -25 -97 -310 -129 -377 -31 -67 -199 -313 -319
-469 -91 -117 -198 -221 -257 -250 -60 -29 -213 -40 -254 -18 -43 23 -65 74
-64 150 0 58 -2 68 -17 68 -24 0 -28 -16 -24 -89 4 -78 36 -139 84 -163 27
-14 56 -17 135 -15 87 2 109 6 157 30 71 35 178 139 282 275 44 56 80 102 81
102 1 0 -8 -35 -21 -77 -20 -69 -22 -102 -24 -288 -3 -423 -22 -520 -182 -920
-147 -366 -202 -565 -193 -694 6 -84 33 -183 115 -427 39 -115 80 -243 91
-284 48 -179 59 -324 27 -357 -15 -14 -19 -13 -43 11 -36 36 -142 269 -208
459 -4 9 -16 17 -28 17 -20 0 -21 -4 -15 -47 6 -48 32 -276 41 -363 3 -25 7
-70 11 -100 15 -141 -1 -200 -54 -200 -56 0 -81 37 -96 140 -2 19 -9 69 -15
110 -11 78 -18 135 -27 235 -3 33 -7 69 -9 80 -2 11 -4 37 -4 58 -1 32 -4 37
-23 37 l-23 0 -1 -228 c-2 -398 -5 -453 -26 -474 -31 -31 -91 -20 -107 20 -5
15 -13 50 -16 77 -3 28 -12 97 -20 155 -8 58 -17 123 -20 145 -2 22 -7 56 -9
75 -3 19 -8 60 -11 90 -8 76 -14 90 -34 90 -16 0 -18 -18 -17 -254 1 -244 0
-256 -20 -283 -15 -20 -30 -28 -53 -29 -57 -2 -65 12 -64 117 0 86 11 261 18
301 2 9 7 59 11 110 3 51 8 111 10 133 8 115 -18 126 -150 61 -105 -51 -187
-76 -259 -77 -94 -3 -79 15 129 150 232 152 338 266 365 390 14 67 6 402 -16
626 -2 28 -7 86 -10 130 -4 44 -8 100 -11 125 -6 65 -6 355 0 420 22 211 31
242 145 471 l98 196 -10 69 c-18 133 -13 687 8 815 2 13 6 49 9 79 4 30 8 66
11 80 2 14 9 61 15 105 27 188 60 341 112 525 37 127 110 320 143 376 54 92
210 217 375 299 141 71 362 152 535 198 356 94 498 156 627 275 139 129 185
254 192 525 2 82 1 87 -19 87 -19 0 -20 -6 -23 -97 -1 -54 -4 -107 -6 -118 -3
-11 -5 -29 -5 -40 -1 -17 -5 -15 -22 12 -11 17 -35 41 -53 51 -60 36 -140 181
-172 311 -2 9 -8 36 -14 61 -16 66 -18 70 -36 63 -13 -5 -15 -14 -9 -50 6 -42
6 -44 -14 -34 -99 53 -192 392 -137 499 9 18 20 32 25 32 5 0 7 9 4 20 -7 26
-17 25 -44 -2z m413 -10929 c38 -16 70 -86 67 -146 -5 -113 -3 -242 4 -292 13
-94 57 -252 98 -355 42 -103 47 -141 9 -59 -12 26 -60 97 -106 157 -76 100
-84 115 -85 156 0 25 -2 61 -4 80 -9 87 -16 157 -25 223 -5 40 -10 78 -10 85
0 14 -26 17 -34 3 -3 -4 -1 -48 5 -97 16 -145 18 -166 24 -231 3 -37 2 -64 -5
-68 -20 -12 -9 -36 56 -117 82 -102 132 -177 164 -246 18 -38 30 -51 42 -48
17 4 17 3 33 -108 5 -37 2 -42 -43 -86 -52 -50 -132 -93 -197 -105 -104 -19
-268 -8 -313 21 -13 9 -35 17 -48 19 -51 5 -72 30 -77 92 -10 132 -1 235 26
303 55 139 75 181 89 193 23 18 105 299 122 417 2 19 6 64 7 100 2 71 19 117
46 122 32 6 128 -2 155 -13z m1532 0 c34 -16 54 -62 62 -140 3 -39 31 -138 71
-254 147 -428 171 -534 151 -647 -18 -98 -89 -173 -197 -205 -75 -23 -293 -23
-372 0 -75 22 -101 45 -133 117 -22 50 -26 69 -21 103 8 46 50 137 64 137 5 0
11 10 15 23 3 13 39 57 79 99 58 60 77 87 90 129 25 82 34 155 36 309 2 136 2
140 -18 140 -20 0 -21 -6 -22 -117 0 -65 -2 -131 -4 -148 -13 -107 -18 -132
-36 -180 -12 -32 -34 -66 -56 -85 -19 -17 -36 -30 -38 -28 -1 2 6 48 15 103
13 72 18 151 17 280 0 114 4 196 12 223 15 53 64 110 116 133 45 21 132 25
169 8z m-1217 -1256 c19 -40 33 -79 30 -87 -8 -21 -88 -30 -147 -16 -91 22
-91 74 -2 157 66 61 63 63 119 -54z m-739 20 c15 -9 29 -18 31 -19 2 -2 -6
-18 -18 -37 -34 -55 -91 -74 -91 -30 0 17 39 103 46 103 3 0 17 -8 32 -17z
m1810 -67 c17 0 32 -4 32 -8 0 -5 -4 -8 -10 -8 -5 0 -10 -8 -10 -18 0 -17 -41
-44 -88 -57 -13 -4 -45 -2 -71 5 l-49 11 25 45 25 44 56 -7 c32 -3 72 -7 90
-7z"/>
<path d="M3365 10063 c2 -120 7 -326 10 -458 3 -132 7 -334 10 -450 3 -115 7
-325 10 -465 3 -140 7 -329 10 -420 10 -397 18 -788 17 -822 -1 -32 2 -38 18
-38 11 0 20 6 21 13 1 31 -3 285 -6 412 -2 77 -7 266 -10 420 -3 154 -8 366
-10 470 -8 332 -15 612 -21 905 -3 157 -7 339 -9 405 -2 66 -4 148 -4 183 -1
56 -3 62 -21 62 -21 0 -21 -3 -15 -217z"/>
<path d="M3083 10042 c-8 -5 -9 -20 -1 -57 5 -28 10 -111 10 -185 1 -129 0
-139 -30 -215 -47 -118 -221 -375 -265 -390 -35 -13 -120 -12 -211 1 -81 12
-286 57 -320 70 -8 3 -16 -4 -19 -15 -6 -23 -5 -23 153 -60 219 -52 379 -61
428 -24 46 34 191 234 238 328 58 116 74 199 68 335 -3 58 -6 112 -6 120 0 27
-20 100 -27 100 -3 0 -11 -4 -18 -8z"/>
<path d="M3584 9894 c-26 -11 99 -402 182 -573 67 -137 122 -197 207 -229 76
-29 170 -37 254 -23 70 12 253 70 253 80 0 3 -4 12 -8 19 -7 9 -33 4 -117 -24
-203 -67 -358 -52 -454 44 -81 82 -162 266 -246 557 -24 82 -47 150 -51 151
-5 1 -14 0 -20 -2z"/>
<path d="M4989 9638 c-21 -224 -90 -440 -155 -483 -31 -20 -65 -25 -87 -11
-14 8 -20 8 -27 -4 -15 -24 -12 -28 25 -39 61 -17 118 10 164 76 46 68 96 249
116 421 6 48 5 52 -14 52 -12 0 -22 -6 -22 -12z"/>
<path d="M4886 9113 c-12 -54 -17 -78 -20 -103 -6 -36 -39 -206 -96 -490 -80
-395 -99 -578 -79 -730 5 -36 11 -81 13 -100 12 -87 116 -584 171 -810 2 -8 8
-37 15 -65 6 -27 31 -131 56 -229 77 -307 89 -433 89 -911 -1 -273 -8 -505
-20 -630 -6 -60 -15 -162 -20 -235 -14 -184 -69 -390 -250 -945 -28 -88 -66
-256 -79 -355 -23 -178 -16 -469 19 -700 26 -172 33 -271 30 -400 -1 -80 -5
-156 -8 -170 -3 -14 -11 -54 -17 -90 -15 -87 -52 -231 -106 -420 -66 -225 -92
-340 -109 -470 -28 -227 -28 -240 4 -221 12 8 13 14 26 136 4 39 9 79 11 90 2
10 6 37 10 60 12 87 36 182 98 397 115 400 137 528 131 758 -2 91 -8 192 -14
225 -5 33 -13 85 -16 115 -3 30 -8 62 -10 70 -19 75 -27 432 -13 581 13 136
55 298 172 664 117 363 152 522 171 780 3 39 7 95 10 125 27 334 27 1122 0
1202 -2 7 -6 38 -9 68 -3 30 -32 168 -66 305 -87 359 -136 575 -205 906 -42
204 -56 366 -44 509 12 140 19 185 71 440 27 135 51 256 54 270 4 22 39 207
51 270 7 37 9 35 27 -22 24 -74 115 -327 130 -363 8 -16 26 -59 42 -95 58
-134 132 -262 189 -329 141 -165 302 -251 470 -251 47 0 55 3 55 19 0 16 -10
19 -77 23 -221 14 -409 169 -551 453 -81 163 -183 433 -258 683 -7 24 -42 13
-48 -15z"/>
<path d="M5253 8174 c-6 -16 3 -569 10 -619 3 -16 8 -57 12 -90 7 -58 8 -68
21 -130 13 -70 62 -203 144 -390 87 -200 118 -281 141 -365 12 -47 15 -205 4
-275 -4 -22 -9 -53 -11 -70 -26 -174 -56 -285 -114 -430 -72 -180 -133 -380
-131 -432 1 -43 27 -92 54 -102 60 -23 124 66 212 295 26 65 53 126 62 134 14
14 15 4 9 -95 -3 -60 -8 -121 -10 -135 -6 -33 -15 -135 -22 -246 -6 -90 -6
-91 21 -112 41 -33 91 -39 123 -15 32 24 49 71 64 176 6 42 12 76 14 74 2 -1
5 -32 8 -67 15 -188 18 -218 26 -254 16 -74 75 -100 141 -64 65 36 96 121 100
275 2 69 14 93 17 36 4 -56 29 -152 47 -179 23 -36 62 -48 90 -30 46 30 54 88
61 476 4 162 7 296 9 298 2 2 26 -8 54 -23 78 -39 224 -85 271 -85 61 0 99 24
100 62 0 31 -52 79 -234 216 -222 168 -299 241 -318 303 -19 65 -16 357 7 554
17 142 23 526 11 647 -23 233 -77 447 -160 641 -17 38 -23 42 -43 29 -8 -5 -3
-26 17 -74 43 -100 87 -243 109 -354 20 -100 25 -134 37 -254 8 -70 7 -406 0
-480 -3 -25 -8 -94 -11 -155 -4 -60 -9 -113 -11 -117 -2 -3 -7 -85 -10 -181
-12 -317 -7 -324 371 -610 167 -126 206 -163 185 -178 -37 -25 -164 8 -327 86
-53 25 -96 45 -97 45 0 0 -1 -129 -2 -288 0 -425 -10 -522 -53 -522 -49 0 -81
221 -90 618 -1 35 -4 42 -21 42 -16 0 -20 -7 -21 -32 0 -18 -2 -51 -3 -73 -2
-22 -6 -101 -10 -175 -7 -135 -12 -213 -22 -325 -6 -76 -37 -141 -76 -161 -27
-14 -32 -14 -54 1 -13 8 -24 21 -24 28 0 6 -4 41 -9 77 -5 36 -12 121 -16 190
-4 69 -8 148 -11 175 -2 28 -4 91 -5 140 -1 50 -4 95 -6 102 -7 17 -42 12 -41
-7 2 -34 -26 -332 -37 -400 -2 -14 -7 -45 -10 -70 -13 -89 -43 -122 -91 -99
-28 14 -29 17 -28 84 2 88 18 277 29 335 3 14 5 58 6 99 1 84 -13 108 -54 97
-31 -7 -58 -49 -93 -146 -59 -164 -132 -294 -162 -288 -28 5 -42 65 -27 113 7
22 25 81 40 130 15 50 52 152 82 228 55 143 93 282 113 422 6 44 14 93 16 110
12 69 6 232 -10 292 -16 61 -81 229 -129 333 -124 271 -166 414 -183 635 -11
132 -11 150 -13 386 -1 185 -3 218 -16 223 -9 3 -18 -1 -22 -10z"/>
<path d="M3154 6979 c-9 -16 106 -124 149 -140 l37 -13 0 -298 c0 -291 0 -298
20 -298 20 0 20 7 20 300 l0 300 22 0 c26 0 187 105 195 127 15 38 -18 29 -99
-27 -74 -51 -92 -60 -130 -60 -49 0 -108 35 -156 91 -25 30 -46 37 -58 18z"/>
<path d="M2074 6179 c-8 -14 96 -121 203 -208 199 -161 361 -221 499 -185 87
22 177 70 344 183 85 57 170 110 188 118 l32 13 0 -340 c0 -333 0 -340 20
-340 20 0 20 7 20 336 l0 337 48 -45 c88 -82 226 -164 377 -222 125 -48 206
-65 301 -63 70 2 89 6 156 40 101 50 183 112 296 226 81 82 91 96 79 108 -13
13 -28 1 -119 -89 -104 -104 -204 -179 -295 -221 -72 -33 -208 -30 -323 8
-169 55 -343 151 -445 247 -52 48 -69 58 -98 58 -44 0 -115 -37 -254 -133
-313 -215 -414 -236 -621 -126 -94 50 -174 111 -288 221 -91 88 -107 98 -120
77z"/>
<path d="M2540 1832 c-74 -9 -95 -48 -87 -160 7 -96 12 -111 38 -105 14 4 18
11 14 22 -13 32 -17 158 -7 178 12 21 94 39 125 27 22 -8 37 -58 37 -120 0
-47 2 -54 20 -54 17 0 20 7 20 53 0 72 -16 122 -47 147 -25 19 -41 21 -113 12z"/>
<path d="M4136 1809 c-60 -16 -85 -67 -92 -182 -2 -53 -1 -58 18 -55 17 3 20
12 23 65 4 60 23 114 46 129 22 13 72 5 94 -16 27 -26 45 -90 40 -143 -4 -35
-2 -38 18 -35 20 3 22 8 20 71 -3 70 -17 109 -51 140 -26 24 -79 36 -116 26z"/>
</g>
</svg>
