<?xml version="1.0" standalone="no"?>
<!DOCTYPE svg PUBLIC "-//W3C//DTD SVG 20010904//EN"
 "http://www.w3.org/TR/2001/REC-SVG-20010904/DTD/svg10.dtd">
<svg version="1.0" xmlns="http://www.w3.org/2000/svg"
 width="279.000000pt" height="295.000000pt" viewBox="0 0 279.000000 295.000000"
 preserveAspectRatio="xMidYMid meet">
<metadata>
Created by potrace 1.14, written by Peter Selinger 2001-2017
</metadata>
<g transform="translate(0.000000,295.000000) scale(0.100000,-0.100000)"
fill="#000000" stroke="none">
<path d="M1132 2928 c-159 -20 -331 -77 -412 -137 -64 -47 -202 -196 -292
-314 -141 -185 -206 -335 -228 -528 -5 -43 -14 -87 -19 -98 -6 -10 -34 -32
-64 -49 -29 -16 -59 -37 -66 -46 -18 -21 -49 -215 -45 -279 4 -56 11 -67 70
-108 34 -23 47 -41 63 -86 90 -252 430 -692 676 -875 108 -81 160 -106 299
-142 l119 -31 28 -90 c39 -126 56 -140 162 -139 63 0 96 6 142 25 71 29 98 64
113 146 16 88 27 112 59 118 147 30 561 320 700 490 47 57 86 131 138 260 36
90 91 263 101 319 7 40 9 43 57 67 23 12 45 26 49 32 3 5 5 80 3 165 -3 172
-6 178 -73 197 -35 10 -37 13 -43 60 -26 200 -96 396 -201 557 -168 258 -431
426 -753 481 -93 16 -469 19 -583 5z m428 -32 c280 -12 521 -107 709 -282 60
-55 161 -174 161 -190 0 -4 6 -15 14 -23 26 -31 85 -150 114 -233 43 -123 71
-246 76 -335 2 -40 5 -43 50 -47 20 -1 42 -8 48 -14 7 -7 12 -61 13 -151 l1
-140 -38 -17 c-46 -21 -62 -44 -76 -111 -22 -99 -93 -298 -147 -408 -62 -127
-115 -187 -278 -317 -183 -146 -372 -263 -477 -294 -63 -19 -75 -38 -95 -164
-12 -69 -47 -98 -143 -119 -82 -17 -120 -14 -146 12 -22 22 -65 133 -69 176
-2 25 -27 36 -151 66 -118 29 -198 66 -287 133 -159 121 -393 391 -543 626
-44 69 -116 209 -116 225 0 30 -44 93 -81 116 -61 39 -64 59 -39 229 15 97 8
88 120 159 38 25 58 73 59 145 1 63 37 196 76 279 64 139 192 309 355 473 89
88 166 130 303 165 109 27 146 32 292 41 61 4 111 8 113 9 2 2 17 1 35 -1 18
-2 84 -5 147 -8z"/>
</g>
</svg>
